<?xml version="1.0" encoding="UTF-8" standalone="no"?>
<!-- Created with Inkscape (http://www.inkscape.org/) -->

<svg
   xmlns:dc="http://purl.org/dc/elements/1.1/"
   xmlns:cc="http://creativecommons.org/ns#"
   xmlns:rdf="http://www.w3.org/1999/02/22-rdf-syntax-ns#"
   xmlns:svg="http://www.w3.org/2000/svg"
   xmlns="http://www.w3.org/2000/svg"
   xmlns:sodipodi="http://sodipodi.sourceforge.net/DTD/sodipodi-0.dtd"
   xmlns:inkscape="http://www.inkscape.org/namespaces/inkscape"
   width="48px"
   height="48px"
   id="svg3208"
   version="1.1"
   inkscape:version="0.48.4 r9939"
   sodipodi:docname="power-inverse.svg">
  <defs
     id="defs3210" />
  <sodipodi:namedview
     id="base"
     pagecolor="#ffffff"
     bordercolor="#666666"
     borderopacity="1.0"
     inkscape:pageopacity="0.0"
     inkscape:pageshadow="2"
     inkscape:zoom="6.170141"
     inkscape:cx="19.568909"
     inkscape:cy="2.4137384"
     inkscape:current-layer="layer1"
     showgrid="true"
     inkscape:grid-bbox="true"
     inkscape:document-units="px"
     inkscape:window-width="1375"
     inkscape:window-height="876"
     inkscape:window-x="65"
     inkscape:window-y="24"
     inkscape:window-maximized="1" />
  <metadata
     id="metadata3213">
    <rdf:RDF>
      <cc:Work
         rdf:about="">
        <dc:format>image/svg+xml</dc:format>
        <dc:type
           rdf:resource="http://purl.org/dc/dcmitype/StillImage" />
      </cc:Work>
    </rdf:RDF>
  </metadata>
  <g
     id="layer1"
     inkscape:label="Layer 1"
     inkscape:groupmode="layer">
    <path
       style="fill:#22cc00;fill-opacity:1;stroke:none"
       d="M 0 0 L 0 48 L 48 48 L 48 0 L 0 0 z M 24 1.5 C 25.662 1.5 27 2.838 27 4.5 L 27 23.5 C 27 25.162 25.662 26.5 24 26.5 C 22.338 26.5 21 25.162 21 23.5 L 21 4.5 C 21 2.838 22.338 1.5 24 1.5 z M 32.53125 8.75 C 33.009568 8.75 33.463847 8.892009 33.84375 9.125 C 33.87508 9.14422 33.9071 9.16696 33.9375 9.1875 C 39.938961 12.635987 44 19.082281 44 26.5 C 44 37.545695 35.045695 46.5 24 46.5 C 12.954305 46.5 4 37.545695 4 26.5 C 4 19.359972 7.776168 13.131559 13.40625 9.59375 C 13.52819 9.498463 13.642683 9.41539 13.78125 9.34375 C 13.79375 9.33628 13.79998 9.3199 13.8125 9.3125 C 14.14615 9.14748 14.50882 9.0625 14.90625 9.0625 C 16.286962 9.0625 17.40625 10.181788 17.40625 11.5625 C 17.40625 12.425445 16.977504 13.175732 16.3125 13.625 C 11.929716 16.243516 9 21.023473 9 26.5 C 9 34.784272 15.715729 41.5 24 41.5 C 32.284271 41.5 39 34.784272 39 26.5 C 39 20.897801 35.901091 16.038408 31.34375 13.46875 C 30.561111 13.046399 30.03125 12.201705 30.03125 11.25 C 30.03125 9.869288 31.150538 8.75 32.53125 8.75 z "
       id="rect3244" />
    <g
       id="g3216"
       transform="translate(0,-1.5)" />
  </g>
</svg>
