<?xml version="1.0" encoding="UTF-8" standalone="no"?>
<!-- Created with Inkscape (http://www.inkscape.org/) -->

<svg
   xmlns:dc="http://purl.org/dc/elements/1.1/"
   xmlns:cc="http://creativecommons.org/ns#"
   xmlns:rdf="http://www.w3.org/1999/02/22-rdf-syntax-ns#"
   xmlns:svg="http://www.w3.org/2000/svg"
   xmlns="http://www.w3.org/2000/svg"
   xmlns:sodipodi="http://sodipodi.sourceforge.net/DTD/sodipodi-0.dtd"
   xmlns:inkscape="http://www.inkscape.org/namespaces/inkscape"
   width="48px"
   height="48px"
   id="svg3111"
   version="1.1"
   inkscape:version="0.48.4 r9939"
   sodipodi:docname="power.svg">
  <defs
     id="defs3113" />
  <sodipodi:namedview
     id="base"
     pagecolor="#ffffff"
     bordercolor="#666666"
     borderopacity="1.0"
     inkscape:pageopacity="0.0"
     inkscape:pageshadow="2"
     inkscape:zoom="2.3125"
     inkscape:cx="-134.78626"
     inkscape:cy="34.674191"
     inkscape:current-layer="g3216"
     showgrid="true"
     inkscape:grid-bbox="true"
     inkscape:document-units="px"
     inkscape:window-width="829"
     inkscape:window-height="517"
     inkscape:window-x="492"
     inkscape:window-y="218"
     inkscape:window-maximized="0" />
  <metadata
     id="metadata3116">
    <rdf:RDF>
      <cc:Work
         rdf:about="">
        <dc:format>image/svg+xml</dc:format>
        <dc:type
           rdf:resource="http://purl.org/dc/dcmitype/StillImage" />
        <dc:title />
      </cc:Work>
    </rdf:RDF>
  </metadata>
  <g
     id="layer1"
     inkscape:label="Layer 1"
     inkscape:groupmode="layer">
    <g
       id="g3216"
       transform="translate(0,-1.5)">
      <rect
         ry="3"
         y="3"
         x="21"
         height="25"
         width="6"
         id="rect3972"
         style="fill:#22cc00;fill-opacity:1;stroke:none"
         rx="3" />
      <path
         inkscape:connector-curvature="0"
         id="path3175"
         d="m 32.53125,10.25 c -1.380712,0 -2.5,1.119288 -2.5,2.5 0,0.951705 0.529861,1.796399 1.3125,2.21875 C 35.901091,17.538408 39,22.397801 39,28 39,36.284272 32.284271,43 24,43 15.715729,43 9,36.284272 9,28 c 0,-5.476527 2.929716,-10.256484 7.3125,-12.875 0.665004,-0.449268 1.09375,-1.199555 1.09375,-2.0625 0,-1.380712 -1.119288,-2.5 -2.5,-2.5 -0.39743,0 -0.7601,0.08498 -1.09375,0.25 -0.01252,0.0074 -0.01875,0.02378 -0.03125,0.03125 -0.138567,0.07164 -0.25306,0.154713 -0.375,0.25 C 7.776168,14.631559 4,20.859972 4,28 4,39.045695 12.954305,48 24,48 35.045695,48 44,39.045695 44,28 44,20.582281 39.938961,14.135987 33.9375,10.6875 33.9071,10.66696 33.87508,10.64422 33.84375,10.625 33.463847,10.392009 33.009568,10.25 32.53125,10.25 z"
         style="fill:#22cc00;fill-opacity:1;stroke:none" />
    </g>
  </g>
</svg>
