<?xml version="1.0" encoding="UTF-8" standalone="no"?>
<!-- Created with Inkscape (http://www.inkscape.org/) -->

<svg
   xmlns:dc="http://purl.org/dc/elements/1.1/"
   xmlns:cc="http://creativecommons.org/ns#"
   xmlns:rdf="http://www.w3.org/1999/02/22-rdf-syntax-ns#"
   xmlns:svg="http://www.w3.org/2000/svg"
   xmlns="http://www.w3.org/2000/svg"
   xmlns:sodipodi="http://sodipodi.sourceforge.net/DTD/sodipodi-0.dtd"
   xmlns:inkscape="http://www.inkscape.org/namespaces/inkscape"
   width="800px"
   height="600px"
   id="svg2996"
   version="1.1"
   inkscape:version="0.48.3.1 r9886"
   sodipodi:docname="UbuntuDesktop.svg">
  <defs
     id="defs2998" />
  <sodipodi:namedview
     id="base"
     pagecolor="#ffffff"
     bordercolor="#666666"
     borderopacity="1.0"
     inkscape:pageopacity="0.0"
     inkscape:pageshadow="2"
     inkscape:zoom="2.56"
     inkscape:cx="411.75481"
     inkscape:cy="233.12444"
     inkscape:current-layer="layer1"
     inkscape:document-units="px"
     showgrid="false"
     inkscape:window-width="1301"
     inkscape:window-height="744"
     inkscape:window-x="65"
     inkscape:window-y="24"
     inkscape:window-maximized="1" />
  <metadata
     id="metadata3001">
    <rdf:RDF>
      <cc:Work
         rdf:about="">
        <dc:format>image/svg+xml</dc:format>
        <dc:type
           rdf:resource="http://purl.org/dc/dcmitype/StillImage" />
      </cc:Work>
    </rdf:RDF>
  </metadata>
  <g
     id="layer1"
     inkscape:label="Layer 1"
     inkscape:groupmode="layer">
    <path
       style="fill:#1a1a1a"
       d="m 1.6666654,1.6666769 800.0000046,0 0,600.0000031 -800.0000046,0 z"
       id="rect3141" />
    <g
       id="g3795"
       transform="translate(10.833908,-10.499986)">
      <g
         style="fill:#000000"
         transform="matrix(1.2644093,0,0,1.2649624,-424.29123,-141.79537)"
         id="g3630">
        <path
           inkscape:connector-curvature="0"
           id="path3648"
           d="m 628.58016,433.13941 c -11.14679,-1.52091 -21.46337,-6.30312 -32.03874,-14.8514 -12.72362,-10.28476 -23.14537,-26.55851 -25.69383,-40.12135 -0.98147,-5.22335 -1.44597,-35.33333 -0.54508,-35.33333 0.3869,0 0.70347,-0.85046 0.70347,-1.8899 0,-2.32509 1.9794,-8.43442 4.65948,-14.38127 6.54535,-14.52352 22.18687,-29.99387 36.75474,-36.35252 10.99447,-4.79891 17.5313,-6.01906 32.24649,-6.01906 14.71519,0 21.25201,1.22015 32.24648,6.01906 15.0211,6.55648 30.3103,21.91251 37.08074,37.24284 2.85204,6.45788 4.31623,11.02964 4.32625,13.50817 0.004,0.98669 0.30858,1.9794 0.67689,2.20601 0.41415,0.25482 0.66964,6.10492 0.66964,15.33333 0,9.22842 -0.25549,15.07851 -0.66964,15.33334 -0.36831,0.22661 -0.66965,1.69735 -0.66965,3.26831 0,6.45927 -6.58068,20.34672 -14.06591,29.68381 -8.34159,10.40531 -19.19372,18.42232 -31.61523,23.35575 -9.4247,3.7432 -28.89643,5.06803 -44.0661,2.99821 z m 47.56458,-23.56404 c 4.04082,-4.2289 4.01847,-9.1044 -0.0607,-13.25819 -6.3447,-6.46066 -17.37602,-0.42289 -15.57817,8.52641 0.2365,1.17727 1.54422,3.30657 2.90605,4.73178 2.32229,2.43039 2.7176,2.59129 6.36644,2.59129 3.64883,0 4.04414,-0.1609 6.36644,-2.59129 z m -23.96336,-9.1669 c 2.09106,-0.34415 2.70855,-0.85284 3.8351,-3.15934 3.0094,-6.16143 6.75952,-8.51612 14.40714,-9.04618 l 5.33281,-0.36962 2.52909,-3.33334 c 3.2872,-4.33252 6.37184,-10.80976 7.58321,-15.9235 1.46817,-6.19779 1.87072,-5.81431 -5.87838,-5.59982 l -6.86384,0.18999 -0.74686,3.01163 c -2.00071,8.06767 -7.99448,15.31852 -15.64741,18.92914 -4.01563,1.89456 -4.92692,2.05923 -11.39591,2.05923 -3.86718,0 -8.12537,-0.25168 -9.46263,-0.55929 l -2.43137,-0.5593 -2.81081,5.0693 c -1.54595,2.78812 -2.70132,5.3963 -2.5675,5.79596 0.26465,0.79044 4.16991,2.39032 7.89731,3.23533 2.89124,0.65545 12.84709,0.81492 16.22005,0.25981 z m -28.44769,-12.95994 c 1.56163,-2.72169 2.8391,-5.09854 2.83884,-5.28187 -2.6e-4,-0.18333 -1.31524,-1.7525 -2.92217,-3.48704 -3.76955,-4.06889 -6.10373,-9.04391 -7.14906,-15.23733 -0.72167,-4.27586 -0.683,-5.63504 0.28306,-9.94743 1.28033,-5.71528 3.97328,-10.81492 7.42023,-14.05173 1.30996,-1.23009 2.38174,-2.51915 2.38174,-2.86457 0,-0.79327 -6.03343,-11.07857 -6.49877,-11.07857 -0.77128,0 -7.92151,6.95765 -9.81502,9.55067 -2.49654,3.41883 -5.78442,10.04855 -5.78442,11.66377 0,0.65625 0.71665,2.16024 1.59256,3.34219 0.8759,1.18195 1.98293,3.53707 2.46005,5.23362 1.10367,3.92439 0.0768,9.3976 -2.35988,12.57804 -0.931,1.21518 -1.69273,2.69882 -1.69273,3.29698 0,1.78483 2.75785,7.74764 5.39658,11.66807 2.89498,4.30115 9.02579,10.21212 10.19545,9.82985 0.44782,-0.14635 2.09191,-2.49295 3.65354,-5.21465 z m -25.46551,-20.01681 c 3.47697,-1.67569 5.1124,-4.41915 5.12568,-8.59839 0.0118,-3.71629 -1.60373,-6.30932 -5.00814,-8.03841 -3.28281,-1.66732 -5.49459,-1.63571 -8.63853,0.12343 -5.20854,2.91435 -6.43409,9.33263 -2.68747,14.0745 1.45931,1.84698 5.03986,3.80227 7.00492,3.8253 0.7124,0.008 2.60399,-0.61555 4.20354,-1.38643 z m 87.72313,-12.46539 c 0.6294,-0.39821 0.59074,-1.45414 -0.17249,-4.71127 -1.43113,-6.10745 -3.45161,-10.50397 -7.14178,-15.54032 l -3.26196,-4.45193 -4.83768,0.0499 c -3.37399,0.0348 -5.52172,-0.30225 -7.09847,-1.114 -2.99743,-1.54314 -6.61942,-5.54987 -7.13676,-7.89484 -0.26424,-1.19775 -1.04782,-2.12312 -2.15153,-2.54089 -3.01781,-1.14227 -11.87822,-1.49823 -16.3435,-0.65659 -4.57684,0.86267 -10.59116,2.646 -10.59116,3.14042 0,0.37423 2.11425,4.31328 4.25092,7.91986 1.41053,2.3809 1.82355,2.64491 3.85419,2.46369 1.25089,-0.11164 5.28774,-0.26164 8.97078,-0.33334 5.62502,-0.10949 7.36396,0.12187 10.86861,1.44606 7.55618,2.85502 14.65657,10.69291 16.992,18.75692 0.47786,1.65 1.18484,3.22041 1.57108,3.4898 0.93304,0.65076 11.19319,0.63108 12.22775,-0.0235 z m -11.06287,-31.29967 c 2.44108,-1.41789 4.55968,-5.30915 4.55968,-8.37485 0,-4.32602 -5.03057,-9.12515 -9.56522,-9.12515 -6.58484,0 -11.30332,7.98761 -8.22235,13.91908 2.2732,4.37634 8.8113,6.14627 13.22789,3.58092 z"
           style="fill:#000000" />
        <path
           inkscape:connector-curvature="0"
           id="path3646"
           d="m 630.49566,433.15623 c -29.55622,-4.28962 -55.51004,-30.56314 -60.09504,-60.83528 -1.58758,-10.48188 -0.59369,-26.77414 2.20084,-36.07702 3.18335,-10.59724 10.09075,-21.78163 18.7956,-30.43362 17.60775,-17.50084 40.30092,-24.53585 66.54474,-20.62925 19.51808,2.90542 38.28525,15.02681 49.50099,31.97182 3.48256,5.26153 7.81938,14.14222 9.25259,18.9469 2.83506,9.50425 3.83415,25.67862 2.23738,36.22117 -3.97933,26.27327 -23.88341,49.65056 -49.82411,58.51828 -9.00977,3.07995 -26.23456,4.11354 -38.61299,2.317 z m 43.88955,-21.24642 c 4.64234,-1.93107 6.73064,-9.18568 3.98683,-13.85008 -2.04158,-3.47066 -4.53977,-4.89307 -8.59374,-4.89307 -3.85686,0 -6.11133,1.18627 -8.62535,4.53857 -2.92503,3.90034 -1.08167,11.16147 3.56242,14.03254 2.12709,1.31502 6.72542,1.39683 9.66984,0.17204 z m -21.4014,-10.98869 c 1.43646,-0.30935 2.37569,-1.21245 3.53853,-3.40243 3.37702,-6.36 7.18746,-8.6311 14.59524,-8.69912 l 4.6875,-0.0431 2.52013,-3.25451 c 4.39902,-5.68093 8.26093,-14.74843 8.66949,-20.35537 l 0.19431,-2.66666 -7.29765,0 -7.29765,0 -1.11847,4.06781 c -0.61516,2.23729 -1.9189,5.42756 -2.8972,7.08949 -2.34852,3.98964 -7.95352,8.96102 -12.52742,11.11126 -3.3617,1.58037 -4.35493,1.72162 -11.38393,1.61888 -4.23549,-0.0619 -8.58649,-0.21191 -9.66888,-0.33334 -1.81966,-0.20413 -2.209,0.1812 -5.16569,5.11256 -1.75873,2.93334 -3.20852,5.57364 -3.22174,5.86736 -0.0303,0.67308 3.67535,2.22752 8.20834,3.44322 3.53004,0.94672 14.57666,1.21666 18.16509,0.44388 z m -29.22804,-12.25446 c 4.08847,-7.14569 4.06933,-6.75599 0.51743,-10.53638 -9.995,-10.63798 -9.99593,-26.85037 -0.002,-37.86952 l 3.24013,-3.57257 -1.61065,-3.0226 c -2.70128,-5.06928 -5.27289,-8.83226 -6.03597,-8.83226 -1.24513,0 -8.05973,6.82735 -10.64676,10.66666 -2.63986,3.91773 -5.39933,9.88101 -5.39933,11.66807 0,0.59816 0.71605,2.04255 1.59122,3.20975 3.774,5.0333 3.95294,10.99838 0.49601,16.53471 -1.14798,1.83851 -2.08723,3.93133 -2.08723,4.65074 0,0.7194 1.07941,3.57254 2.39869,6.34031 1.75098,3.67342 3.78595,6.45864 7.53606,10.31436 2.82554,2.90514 5.6098,5.28206 6.18723,5.28206 0.60258,0 2.2281,-2.05924 3.81531,-4.83333 z M 599.4658,367.58942 c 2.94773,-1.63135 5.27299,-6.63931 4.68673,-10.09393 -0.79362,-4.67656 -5.41736,-8.66216 -10.04904,-8.66216 -2.64851,0 -6.93256,2.48195 -8.38914,4.86022 -1.40679,2.29698 -1.72595,6.64493 -0.68739,9.36441 0.34548,0.90462 1.4755,2.43209 2.51116,3.39437 3.36959,3.13082 7.59695,3.53382 11.92768,1.13709 z m 87.12982,-12.41923 c 1.10278,-0.33319 0.071,-5.79566 -2.18515,-11.56897 -1.04672,-2.67846 -3.41241,-6.87197 -5.25709,-9.31891 l -3.35396,-4.44898 -4.68466,-0.0867 c -2.57657,-0.0477 -5.45501,-0.39319 -6.39653,-0.76776 -2.8937,-1.15121 -5.97674,-4.16568 -7.67718,-7.50642 -1.49475,-2.93663 -1.88961,-3.24429 -5.02236,-3.91316 -4.69528,-1.00248 -10.41308,-0.90798 -16.01251,0.26466 -5.00269,1.04768 -9.41985,2.63886 -9.41985,3.39331 0,0.76033 5.38713,10.21737 6.38765,11.21344 0.80554,0.80196 1.43141,0.7911 4.40414,-0.0765 5.55989,-1.62259 13.32358,-0.93334 18.93535,1.68105 6.23747,2.90589 11.63911,8.44324 14.02551,14.37787 0.98069,2.43882 1.78307,4.86615 1.78307,5.39407 0,1.70556 2.10345,2.20494 7.97551,1.89346 3.16369,-0.16782 6.08782,-0.40654 6.49806,-0.53048 z M 675.53865,323.9867 c 4.48826,-2.98503 5.92254,-9.04956 3.11242,-13.16015 -2.49414,-3.64836 -4.85204,-4.99322 -8.75447,-4.99322 -5.91652,0 -9.83168,4.04252 -9.82562,10.14525 0.007,7.44747 9.17446,12.19357 15.46767,8.00812 z"
           style="fill:#000000" />
        <path
           inkscape:connector-curvature="0"
           id="path3644"
           d="m 631.40058,433.10171 c -30.51337,-5.09494 -55.31011,-29.85914 -60.68132,-60.60172 -2.15709,-12.34629 -1.00498,-26.68911 3.06751,-38.18777 4.05951,-11.46204 9.3287,-19.69084 18.24622,-28.49482 11.65072,-11.50238 24.69881,-18.10865 40.74033,-20.62692 24.2369,-3.80481 47.51211,3.70009 64.87561,20.91862 17.38589,17.24073 24.97243,41.08038 20.97087,65.89807 -4.32555,26.82711 -23.93976,49.74436 -50.04029,58.46707 -10.59275,3.54007 -25.43254,4.58881 -37.17893,2.62747 z m 42.73563,-20.68159 c 4.76183,-1.89683 7.26888,-8.21333 5.30931,-13.37673 -1.84946,-4.87326 -7.61526,-7.7426 -12.45568,-6.19855 -9.04741,2.88603 -10.34326,13.73384 -2.28631,19.13929 2.6639,1.78722 5.68949,1.92707 9.43268,0.43599 z m -19.7551,-11.34747 c 0.5813,-0.22207 1.68077,-1.64177 2.44325,-3.15488 3.07233,-6.0969 6.89778,-8.41778 13.87482,-8.41778 l 4.65726,0 2.62635,-2.97044 c 4.79456,-5.42268 9.54104,-16.27092 9.54104,-21.80633 l 0,-2.55656 -6.19419,-0.0768 c -9.39012,-0.11638 -9.84426,0.0288 -9.86698,3.15386 -0.005,0.77574 -1.06534,3.51006 -2.3549,6.07628 -5.75063,11.44373 -17.5812,17.16721 -30.19263,14.6068 -6.20109,-1.25896 -5.69829,-1.55622 -9.95452,5.88547 -2.38091,4.16285 -2.85782,5.47408 -2.20407,6.05995 1.26656,1.13506 6.91292,3.05686 10.77976,3.66902 3.55793,0.56325 14.97521,0.24563 16.84481,-0.46862 z m -29.85403,-12.81844 c 1.8692,-3.25184 3.39854,-6.13478 3.39854,-6.40652 0,-0.27175 -1.46187,-2.0865 -3.24861,-4.03278 -9.96914,-10.85934 -9.86,-26.83465 0.25689,-37.60235 1.71719,-1.82765 3.01747,-3.56717 2.88953,-3.86561 -0.98102,-2.28824 -6.12594,-10.85005 -6.90849,-11.49663 -2.85958,-2.36269 -14.47495,11.50229 -17.12565,20.44246 -0.7778,2.62332 -0.72426,2.91559 0.88231,4.8164 3.95484,4.67917 4.21004,11.99941 0.59627,17.10353 -1.16547,1.64611 -2.11904,3.54942 -2.11904,4.22958 0,0.68015 1.25913,3.74638 2.79807,6.81384 2.06369,4.11341 4.13418,6.93324 7.88879,10.74386 2.79989,2.84167 5.58619,5.16667 6.19178,5.16667 0.68343,0 2.39016,-2.24264 4.49961,-5.91245 z m -24.0871,-20.73275 c 4.14656,-2.93949 5.39291,-9.83765 2.53917,-14.0535 -4.55049,-6.72245 -14.31407,-6.31989 -17.93149,0.73932 -2.63592,5.14387 -1.11355,10.33891 4.05461,13.83623 3.00067,2.03057 8.06588,1.79734 11.33771,-0.52205 z m 87.08385,-13.61791 c 0,-4.58585 -3.61981,-14.09779 -7.25726,-19.07022 -4.14475,-5.66591 -4.69652,-6.02333 -8.59454,-5.56723 -6.34175,0.74204 -11.02719,-1.9882 -14.39873,-8.39023 -1.92548,-3.65618 -3.35298,-4.14844 -12.27179,-4.23173 -7.02866,-0.0657 -16.86683,1.9985 -18.42309,3.86534 -0.55393,0.66448 0.11885,2.36779 2.76604,7.00298 3.39825,5.95027 3.5568,6.11434 5.55967,5.75347 8.63056,-1.55503 9.99196,-1.65544 13.94133,-1.02828 8.9948,1.42838 16.18321,6.65827 20.23543,14.72218 1.30433,2.59562 2.37151,5.369 2.37151,6.16307 0,2.62617 1.21273,3.04376 8.83929,3.04376 l 7.23214,0 0,-2.26311 z m -11.50145,-29.51178 c 0.98539,-0.71192 2.49756,-2.69543 3.36035,-4.40779 2.11618,-4.1999 1.55308,-7.70693 -1.81336,-11.2937 -5.63233,-6.00096 -15.17502,-3.84843 -17.52268,3.95257 -1.52321,5.06139 0.90987,10.46802 5.68055,12.62299 2.69539,1.21753 8.02656,0.76491 10.29514,-0.87407 z"
           style="fill:#000000" />
        <path
           inkscape:connector-curvature="0"
           id="path3642"
           d="m 636.29615,433.75713 c -32.83777,-4.94938 -56.80026,-26.4941 -64.79479,-58.25714 -1.16041,-4.61042 -1.42524,-7.65489 -1.42075,-16.33333 0.005,-9.46852 0.20747,-11.41324 1.80346,-17.31308 4.15445,-15.35763 10.58115,-26.49177 21.02023,-36.4172 14.42074,-13.71117 32.19052,-20.87874 51.76239,-20.87874 20.56561,0 39.81601,8.24857 54.03893,23.15506 5.89384,6.1771 9.59177,11.56269 13.30165,19.37222 7.46739,15.71934 9.42108,32.25946 5.71872,48.41507 -7.67176,33.4765 -36.52391,57.26162 -70.71555,58.29646 -4.78795,0.14491 -9.60937,0.12722 -10.71429,-0.0393 z m 36.95161,-20.58909 c 4.06198,-1.20091 6.69099,-4.4605 7.28141,-9.0279 0.45231,-3.49888 -1.56481,-8.06151 -4.50679,-10.19421 -2.40477,-1.74325 -7.63508,-2.19348 -10.69501,-0.92064 -4.91521,2.04458 -7.6676,8.22872 -5.95786,13.38625 0.85713,2.58558 5.31433,6.8409 7.64088,7.29482 2.54624,0.49677 2.81463,0.47361 6.23737,-0.53832 z M 653.7045,401.58165 c 1.49876,-0.31914 2.31981,-1.10057 3.24434,-3.0878 2.9095,-6.25378 8.39374,-9.50056 14.78459,-8.75278 l 3.62435,0.42408 2.76749,-3.13006 c 4.85054,-5.48602 10.59282,-19.18358 9.94471,-23.72196 -0.20478,-1.43392 -0.45836,-1.4798 -8.17862,-1.4798 l -7.96729,0 -1.11667,4 c -1.49406,5.35184 -2.92293,7.91159 -6.60225,11.8276 -6.97288,7.42144 -16.83273,10.18257 -26.86751,7.52392 -2.41663,-0.64028 -3.9129,-0.74548 -4.43754,-0.31199 -1.24518,1.02881 -6.98341,11.14593 -6.98341,12.3125 0,1.14841 2.83217,2.51026 8.23239,3.95855 3.55998,0.95475 15.83677,1.22956 19.55542,0.43774 z m -28.8558,-13.11922 c 2.06061,-3.504 3.74656,-6.55002 3.74656,-6.76892 0,-0.21891 -1.523,-2.00121 -3.38445,-3.96067 -10.06122,-10.59097 -10.03202,-26.57212 0.068,-37.20391 l 3.45242,-3.6342 -3.42266,-5.95443 c -1.88247,-3.27493 -3.82695,-6.28846 -4.32107,-6.69672 -2.20611,-1.82277 -11.13634,7.36417 -15.15413,15.58975 -3.66101,7.49516 -3.69211,7.72661 -1.42061,10.57222 4.11254,5.15196 4.1151,12.07773 0.006,17.24336 -1.56307,1.96514 -1.87745,2.86788 -1.50908,4.33334 0.79243,3.15248 3.00235,7.68802 5.62912,11.55294 2.76108,4.06251 10.22859,11.29814 11.66024,11.29814 0.49652,0 2.58872,-2.86691 4.64933,-6.3709 z m -24.54727,-20.3979 c 2.62977,-1.61806 4.81908,-5.72892 4.84162,-9.0911 0.0199,-2.95934 -2.16579,-7.02956 -4.76368,-8.8712 -3.13684,-2.2237 -8.19833,-2.42614 -11.58852,-0.46348 -3.7544,2.1735 -6.04855,6.76465 -5.4305,10.86777 0.521,3.45882 3.4617,7.29651 6.718,8.76715 2.62853,1.18714 7.20902,0.64537 10.22308,-1.20914 z m 87.18028,-12.18067 c 2.16576,-2.59799 -2.81554,-16.27272 -8.56587,-23.51509 l -2.69585,-3.39535 -5.67036,-0.23671 c -5.1539,-0.21516 -5.90469,-0.42387 -8.24317,-2.29155 -1.41504,-1.13016 -3.3691,-3.50019 -4.34234,-5.26673 -0.97325,-1.76654 -2.32928,-3.54187 -3.0134,-3.94517 -0.74457,-0.43893 -4.87255,-0.72513 -10.28403,-0.71299 -7.86911,0.0177 -9.6474,0.23355 -13.72768,1.66667 -3.10357,1.09006 -4.76076,2.04115 -4.90432,2.81465 -0.23461,1.26412 6.31409,13.16507 7.24431,13.16507 0.31088,0 2.47294,-0.4869 4.80459,-1.082 14.32572,-3.65633 29.43298,5.53866 32.98834,20.07827 0.84547,3.45753 1.35298,3.6704 8.75101,3.6704 5.12485,0 7.06809,-0.24091 7.65877,-0.94947 z m -11.68041,-30.955 c 2.82931,-1.64507 5.00167,-5.75879 5.01509,-9.49694 0.0262,-7.28754 -7.93777,-12.62623 -14.90251,-9.99001 -5.0436,1.90906 -8.21984,8.9678 -6.2004,13.77952 1.42789,3.40223 2.8255,4.87899 6.04696,6.38945 3.08006,1.44416 6.82112,1.19005 10.04086,-0.68202 z"
           style="fill:#000000" />
        <path
           inkscape:connector-curvature="0"
           id="path3640"
           d="m 637.63544,433.69915 c -3.64215,-0.48539 -15.33396,-3.48455 -19.08482,-4.89559 -22.11787,-8.32055 -40.10628,-28.0782 -45.5623,-50.04353 -0.76415,-3.07636 -1.68577,-6.49337 -2.04806,-7.59337 -1.00878,-3.06295 -1.45699,-14.84981 -0.73516,-19.33333 1.02586,-6.37196 3.82589,-16.31393 6.11164,-21.70038 9.1676,-21.60379 28.77349,-38.12078 51.11075,-43.05826 2.66794,-0.58973 5.53357,-1.38852 6.36806,-1.77508 0.83553,-0.38704 5.72013,-0.70284 10.87114,-0.70284 5.15101,0 10.03561,0.3158 10.87114,0.70284 0.83449,0.38656 3.70011,1.18535 6.36806,1.77508 19.01644,4.20344 36.00309,16.66161 46.57233,34.1566 7.72742,12.791 12.2829,31.39911 10.70398,43.72335 -2.72669,21.28305 -10.91655,37.13276 -26.15925,50.62555 -14.10699,12.48745 -38.28807,20.39783 -55.38751,18.11896 z m 37.33562,-20.58871 c 5.82364,-2.76476 7.91665,-11.55951 4.02008,-16.89219 -1.61333,-2.20792 -6.54697,-4.71826 -9.27296,-4.71826 -7.09908,0 -12.84026,7.15545 -11.05048,13.77264 1.98458,7.33744 9.62268,11.00944 16.30336,7.83781 z m -19.72099,-11.5407 c 0.80982,-0.43147 1.93829,-1.89459 2.50772,-3.25136 2.32485,-5.53941 6.68816,-8.15172 13.61576,-8.15172 4.6543,0 4.66604,-0.005 7.10984,-2.83333 4.71145,-5.45342 8.53439,-13.66581 9.69811,-20.83334 0.88163,-5.43014 0.53518,-5.66666 -8.30013,-5.66666 -8.4187,0 -8.64017,0.10201 -9.40768,4.33333 -1.29392,7.13353 -7.61756,14.82982 -14.92354,18.16293 -4.87333,2.22331 -12.74598,2.78579 -18.37953,1.31316 -3.47398,-0.9081 -3.8994,-0.89948 -4.78431,0.0969 -2.00018,2.2522 -7.18943,11.67532 -6.99188,12.69653 0.26341,1.36169 4.37485,3.28421 9.53287,4.45759 4.76181,1.08324 18.08005,0.87088 20.32277,-0.32405 z M 625.1226,388.85853 c 1.90996,-3.25998 3.47266,-6.48681 3.47266,-7.17074 0,-0.68394 -1.3212,-2.53442 -2.93601,-4.11219 -10.0409,-9.8106 -10.05021,-26.05893 -0.021,-36.73327 1.62638,-1.731 2.95705,-3.60931 2.95705,-4.17401 0,-0.5647 -1.57007,-3.75859 -3.48904,-7.09753 -2.61872,-4.55648 -3.83261,-6.0708 -4.86641,-6.0708 -3.44484,0 -13.061,11.03496 -16.16651,18.55178 -1.99499,4.82882 -1.98352,6.46168 0.0624,8.8823 3.66726,4.33891 3.83352,10.85078 0.40084,15.69912 -1.14998,1.62424 -2.05733,3.75639 -2.05733,4.83444 0,2.84503 4.97811,12.0095 8.90791,16.39904 3.9585,4.4216 8.22617,7.69716 9.42954,7.23744 0.45831,-0.1751 2.396,-2.9856 4.30596,-6.24558 z m -25.53084,-19.79606 c 2.98079,-1.40819 5.44436,-5.10882 5.93681,-8.91794 0.71547,-5.5342 -3.72714,-11.29363 -9.55042,-12.38123 -7.48902,-1.3987 -14.49659,6.07259 -12.83569,13.6851 1.53755,7.04717 9.6756,10.81412 16.4493,7.61407 z m 82.74234,-12.22004 5.85938,-0.009 0,-3.34586 c 0,-6.04129 -3.7561,-14.83115 -9.34636,-21.87192 l -2.70416,-3.40581 -4.85643,0.0912 c -6.88362,0.12925 -11.08024,-2.44991 -13.5452,-8.32459 -1.32834,-3.16581 -2.98104,-3.82266 -10.73089,-4.26492 -9.08385,-0.51839 -21.76339,2.65964 -21.76339,5.45482 0,1.11412 7.16811,13.6671 7.8043,13.6671 0.19806,0 2.04825,-0.48858 4.11155,-1.08573 5.32462,-1.54103 13.5047,-0.96756 18.46825,1.29473 7.13215,3.25069 12.387,9.61481 14.79285,17.91553 1.11513,3.84743 2.05171,4.67337 4.71144,4.15479 0.73661,-0.14361 3.976,-0.26522 7.19866,-0.27022 z m -6.85339,-31.24351 c 6.45082,-3.41274 7.88378,-11.96598 2.92093,-17.43485 -2.73446,-3.01326 -6.02585,-4.29627 -9.74689,-3.79939 -10.55553,1.4095 -13.4495,15.64939 -4.30822,21.1988 2.72779,1.65596 8.03908,1.67287 11.13418,0.0354 z"
           style="fill:#000000" />
        <path
           inkscape:connector-curvature="0"
           id="path3638"
           d="m 637.45051,433.67456 c -1.99613,-0.13867 -3.36267,-0.52005 -3.14128,-0.87668 0.21552,-0.34717 -0.25373,-0.63122 -1.04279,-0.63122 -0.78905,0 -3.75226,-0.58911 -6.58489,-1.30913 -18.90986,-4.80666 -35.03607,-16.77958 -45.26047,-33.60371 -5.24607,-8.63232 -9.74546,-21.0216 -9.74546,-26.83454 0,-0.91555 -0.26299,-1.50283 -0.58442,-1.30506 -0.93079,0.57271 -1.56012,-8.50124 -1.04462,-15.06169 0.25951,-3.30253 0.6605,-5.70067 0.8911,-5.32921 0.23061,0.37146 0.96197,-2.04396 1.62525,-5.3676 3.45584,-17.3168 15.34244,-35.05764 30.10431,-44.93088 9.28109,-6.20751 25.0495,-12.25818 31.94557,-12.25818 1.15346,0 1.93252,-0.26529 1.73123,-0.58953 -0.20129,-0.32425 1.58896,-0.71346 3.97834,-0.86493 5.80532,-0.36801 13.1222,0.1316 12.66696,0.86493 -0.20129,0.32424 0.57777,0.58953 1.73123,0.58953 6.87266,0 23.54351,6.45125 32.44707,12.5563 10.8354,7.42968 20.42161,19.52522 25.97714,32.77703 1.93472,4.61498 4.48564,13.98501 4.5027,16.53935 0.005,0.84664 0.27079,1.37906 0.58918,1.18315 0.85568,-0.52649 1.57625,10.28624 1.0439,15.66468 -0.25358,2.56206 -0.62921,4.49088 -0.83473,4.28628 -0.20551,-0.2046 -0.91941,2.31733 -1.58642,5.60429 -5.44824,26.84819 -27.02519,49.17035 -54.20758,56.07979 -2.83264,0.72002 -5.79584,1.30913 -6.58489,1.30913 -0.78906,0 -1.27526,0.25674 -1.08046,0.57054 0.1948,0.31379 -1.94226,0.76379 -4.74902,1 -5.03903,0.42406 -5.83762,0.42015 -12.78695,-0.0627 z m 36.83489,-19.88317 c 4.59548,-1.55888 6.87683,-5.21136 6.87683,-11.00996 0,-3.80174 -0.25586,-4.71918 -1.92291,-6.89508 -1.05759,-1.38042 -3.16697,-3.06088 -4.6875,-3.73435 -2.67721,-1.18579 -2.70258,-1.22598 -0.80247,-1.27158 5.55119,-0.13323 15.70786,-18.62807 14.98265,-27.28275 l -0.2037,-2.43101 -8.65192,0 -8.65192,0 -1.47135,4.79714 c -3.14936,10.26798 -9.60963,16.38789 -19.65287,18.61746 -4.8257,1.07129 -5.4131,1.06878 -10.96944,-0.0469 -4.50123,-0.90386 -6.08965,-0.99795 -6.80927,-0.40338 -1.04496,0.86338 -7.74413,12.35331 -7.74413,13.28216 0,1.90082 6.51282,4.39976 14.44104,5.54097 5.18827,0.74681 12.36818,0.26064 17.53441,-1.18731 1.33331,-0.37369 1.5067,-0.18071 1.5067,1.67688 0,4.23574 2.513,7.91055 7.03125,10.28192 2.57606,1.35203 5.3445,1.37184 9.1946,0.0658 z m -16.22585,-15.36532 c 0,-0.38716 0.97935,-1.74638 2.17634,-3.02048 1.19698,-1.2741 1.69604,-1.69908 1.10901,-0.9444 -0.58703,0.75467 -1.56638,2.11389 -2.17634,3.02048 -0.60995,0.90658 -1.10901,1.33156 -1.10901,0.9444 z m -34.18874,-6.75941 c 1.24022,-2.10833 2.96125,-4.9519 3.82452,-6.31904 0.86327,-1.36714 1.56957,-2.98815 1.56957,-3.60225 0,-0.6141 -1.523,-2.71974 -3.38445,-4.6792 -1.86144,-1.95946 -4.19521,-5.28844 -5.18614,-7.39775 -1.5789,-3.36086 -1.80169,-4.65947 -1.80169,-10.50176 0,-5.84229 0.22279,-7.1409 1.80169,-10.50176 0.99093,-2.10931 3.3247,-5.43829 5.18614,-7.39775 1.86145,-1.95946 3.38445,-3.91907 3.38445,-4.3547 0,-0.94916 -5.76054,-11.25468 -7.21776,-12.91246 -1.75853,-2.00056 -3.21261,-1.33008 -8.67483,4 -4.11395,4.01442 -5.92049,6.41339 -8.10053,10.75698 -1.54318,3.07467 -2.98727,6.7203 -3.20911,8.10141 l -0.40333,2.5111 -2.24714,-0.93475 c -8.016,-3.33441 -17.0223,2.16464 -17.0223,10.39345 0,9.39945 9.28573,14.75975 17.81321,10.28289 1.8043,-0.94724 2.90387,-1.33724 2.44349,-0.86666 -1.49727,1.53042 -0.894,4.34014 2.29251,10.67721 2.47048,4.91309 4.22478,7.31417 8.32996,11.4011 6.53226,6.50323 7.49501,6.62527 10.60174,1.34394 z m -19.36218,-26.5 c 0,-0.36667 0.29211,-1.11667 0.64913,-1.66667 0.35703,-0.55 0.64914,-0.7 0.64914,-0.33333 0,0.36667 -0.29211,1.11667 -0.64914,1.66667 -0.35702,0.55 -0.64913,0.7 -0.64913,0.33333 z m 83.96387,-12 c -0.11227,-8.0475 -7.86573,-23.0885 -13.01244,-25.2429 l -1.88856,-0.79056 2.67813,-1.53448 c 1.93424,-1.10826 3.12614,-2.49244 4.29105,-4.98327 1.82987,-3.91266 1.8927,-4.46589 0.90807,-7.99598 -1.06102,-3.80397 -4.72445,-7.48136 -8.36116,-8.39302 -8.22756,-2.06252 -16.2015,5.36963 -14.74906,13.74692 0.41356,2.38532 0.38894,2.43341 -0.44015,0.85996 -1.27213,-2.41423 -4.56179,-3.25315 -12.92359,-3.29571 -9.97966,-0.0508 -19.73805,2.54168 -20.2638,5.3834 -0.15305,0.82724 6.16479,12.28168 7.64417,13.85913 0.14451,0.15409 3.0613,-0.26764 6.48175,-0.93719 5.84657,-1.14445 6.5084,-1.15228 11.05161,-0.13086 9.71722,2.18468 17.04373,8.9781 19.81541,18.37363 1.6388,5.55526 1.48507,5.47972 10.71969,5.26733 l 8.10468,-0.1864 -0.0558,-4 z m -28.48944,-30.16667 c -0.83295,-1.05737 -0.80927,-1.08095 0.25283,-0.2517 1.11545,0.87091 1.47018,1.41837 0.91904,1.41837 -0.13905,0 -0.66639,-0.525 -1.17187,-1.16667 z"
           style="fill:#000000" />
        <path
           inkscape:connector-curvature="0"
           id="path3636"
           d="m 640.31619,433.71023 c -1.10371,-0.1818 -2.1584,-0.53958 -2.34375,-0.79506 -0.18535,-0.25549 -2.59704,-0.83893 -5.35932,-1.29654 -7.58623,-1.25677 -18.3056,-5.16306 -24.26399,-8.84215 -2.91851,-1.80207 -5.45085,-3.27649 -5.62743,-3.27649 -1.98721,0 -17.36819,-15.69319 -18.56422,-18.94104 -0.25811,-0.70091 -1.78792,-3.25091 -3.39959,-5.66667 -4.42536,-6.63327 -8.29287,-18.17989 -8.67679,-25.90495 -0.19517,-3.92716 -0.99555,-6.56624 -1.14187,-3.76512 -0.052,0.99518 -0.18533,0.90916 -0.6029,-0.38888 -0.98767,-3.07032 -0.70063,-7.7864 0.65494,-10.76054 0.72852,-1.59837 1.33144,-3.95613 1.33983,-5.23946 0.0261,-3.99363 2.00922,-12.07796 4.1644,-16.97657 1.76947,-4.02191 3.168,-6.63687 6.89887,-12.89939 3.33641,-5.6004 12.25716,-15.18552 17.03668,-18.30548 2.40781,-1.57177 2.67761,-1.7459 7.39333,-4.77158 7.57442,-4.85988 17.97671,-8.23096 29.14142,-9.44388 2.9745,-0.32315 3.67007,-0.57581 2.67857,-0.97295 -0.81573,-0.32673 1.14761,-0.53644 5.02232,-0.53644 4.13986,0 5.89387,0.2001 5.02232,0.57295 -0.9187,0.39302 -1.02384,0.59686 -0.33482,0.64909 12.65332,0.95904 23.73901,4.32596 32.26181,9.79848 1.59194,1.02219 3.3787,2.16465 3.97056,2.53881 7.42524,4.69397 16.36231,13.67703 20.35245,20.45717 0.36831,0.62583 1.61253,2.73817 2.76494,4.6941 4.61653,7.83537 7.31617,16.19654 8.65581,26.80828 0.25784,2.04237 0.61589,2.95401 0.9493,2.41696 0.3177,-0.51177 0.73069,1.07461 1.01594,3.90242 0.33657,3.33645 0.24181,5.05123 -0.31613,5.72051 -0.43822,0.52568 -0.57359,1.31527 -0.30083,1.75465 0.31374,0.50539 0.21191,0.62412 -0.27717,0.32319 -0.80826,-0.49731 -0.81812,-0.45298 -1.17175,5.26968 -0.40506,6.55484 -4.22706,17.97531 -8.1125,24.24078 -1.39588,2.25094 -3.05001,5.03874 -3.67583,6.19514 -2.67819,4.94872 -14.83609,17.08605 -19.77096,19.7375 -1.18736,0.63795 -4.05008,2.24526 -6.36161,3.5718 -7.28324,4.17972 -20.61903,8.56916 -26.07778,8.58344 -0.98214,0.003 -1.88616,0.2901 -2.00893,0.63896 -0.26166,0.74355 -8.02335,1.38894 -10.93532,0.90928 z m 34.07232,-19.46038 c 2.40737,-0.84404 3.82172,-1.90376 5.35715,-4.01394 1.84285,-2.53268 2.08621,-3.39009 2.08621,-7.35021 0,-3.77533 -0.29092,-4.92073 -1.84279,-7.25534 -1.01353,-1.52475 -2.5493,-2.9488 -3.41282,-3.16457 -1.49929,-0.37462 -1.40534,-0.56294 2.08482,-4.17905 5.85965,-6.07109 11.28156,-18.83423 10.74437,-25.29212 l -0.20751,-2.49463 -8.77521,-0.18534 c -9.88739,-0.20883 -9.6699,-0.30536 -10.9321,4.85201 -2.30062,9.40033 -10.01819,16.95243 -19.33235,18.91786 -4.8241,1.01796 -7.01755,0.95631 -12.6523,-0.35563 -5.77249,-1.34402 -5.88523,-1.28235 -9.11649,4.98646 -1.26193,2.44822 -2.8619,5.42056 -3.55549,6.60521 -0.97548,1.66613 -1.09393,2.41934 -0.52305,3.32605 0.97353,1.54622 5.89966,3.25447 13.32449,4.62058 5.07238,0.93327 6.88065,0.98672 11.41868,0.3375 7.38931,-1.05712 8.33578,-1.00817 8.33578,0.43108 0,2.01567 3.40027,8.1341 5.15748,9.28036 1.53323,1.00014 5.20118,1.99668 7.56574,2.05553 0.55245,0.0137 2.47638,-0.49107 4.27539,-1.12181 z m -49.56752,-23.24986 c 1.67594,-2.84166 3.34922,-5.51598 3.71839,-5.94293 1.92422,-2.22533 1.56357,-4.10044 -1.41405,-7.352 -5.35112,-5.8434 -6.84744,-8.99845 -8.12089,-17.12311 -0.45878,-2.92704 1.30444,-10.20049 3.31087,-13.65767 0.98663,-1.70002 3.10459,-4.5031 4.70656,-6.22906 1.60197,-1.72596 2.91268,-3.46016 2.91268,-3.85378 0,-0.65312 -2.82939,-5.82553 -6.65979,-12.17478 -2.37233,-3.93234 -3.86375,-3.48145 -10.52761,3.18273 -4.59905,4.59926 -6.17374,6.72828 -8.25923,11.16666 -1.41722,3.01617 -2.78748,6.32684 -3.04501,7.35704 -0.35054,1.40225 -0.74205,1.75601 -1.5575,1.40732 -0.59909,-0.25618 -2.79227,-0.60799 -4.87373,-0.78181 -9.69759,-0.80981 -16.20246,8.76042 -11.92858,17.54983 2.64211,5.43362 8.23237,7.6349 15.48814,6.09876 2.37721,-0.50328 2.46839,-0.45135 2.92634,1.66667 0.75647,3.4987 4.99219,11.21411 8.30585,15.12922 3.67438,4.34129 9.07652,8.72358 10.75374,8.72358 0.80899,0 2.23766,-1.73118 4.26382,-5.16667 z m 64.03792,-33.82829 c 0.95422,-1.14465 0.43253,-6.96213 -0.98236,-10.95453 -2.28797,-6.45599 -5.81667,-12.73748 -8.96061,-15.95089 l -3.3577,-3.4319 2.19937,-1.67009 c 1.20965,-0.91855 2.73518,-2.85302 3.39006,-4.29884 1.59801,-3.52798 1.15367,-9.37156 -0.90433,-11.8931 -0.81056,-0.99313 -1.63022,-2.25569 -1.82148,-2.80569 -0.19126,-0.55 -2.15875,-1.56658 -4.37221,-2.25908 -3.44933,-1.07914 -4.4151,-1.14256 -6.75782,-0.44378 -4.18783,1.24913 -8.40835,5.64348 -9.37204,9.75803 l -0.79362,3.38851 -3.31417,-0.9672 c -5.11642,-1.49317 -17.51961,-0.82164 -23.53023,1.27397 -3.3877,1.18113 -4.94914,2.11605 -5.67027,3.39512 -0.93963,1.66663 -0.87491,1.93187 1.15947,4.75211 1.18506,1.64283 2.15465,3.15841 2.15465,3.36796 0,0.20955 0.92986,1.8855 2.06637,3.72434 2.30835,3.73488 2.98574,3.92665 8.25211,2.33614 9.92031,-2.99606 21.86932,1.60629 27.71243,10.67388 0.94512,1.46667 2.38439,4.75112 3.19838,7.29879 0.94822,2.96779 1.9276,4.80735 2.72579,5.11981 0.6852,0.26823 4.59898,0.50877 8.6973,0.53454 5.83236,0.0367 7.63171,-0.16933 8.28091,-0.9481 z M 570.3892,352.44444 c 0.0321,-0.77663 0.19081,-0.9346 0.40458,-0.40278 0.19344,0.48125 0.16965,1.05625 -0.0529,1.27778 -0.22252,0.22153 -0.38079,-0.17223 -0.35171,-0.875 z"
           style="fill:#000000" />
        <path
           style="fill:#000000"
           d="M 401.65625 208.125 C 396.75703 208.125 394.28108 208.3992 395.3125 208.8125 C 396.58771 209.32351 395.79376 209.64679 392.0625 210.125 C 388.80207 210.54286 387.49675 210.99334 388.25 211.46875 C 389.88078 212.49801 390.73725 212.41138 396.5 210.625 C 401.57627 209.05144 401.70863 209.07486 407.21875 210.75 C 411.28171 211.98519 413.28019 212.1922 414.625 211.59375 C 416.17714 210.90303 415.67668 210.67269 411.40625 210.125 C 407.59647 209.6364 406.73008 209.32139 408 208.8125 C 409.03142 208.3992 406.55547 208.125 401.65625 208.125 z M 401.65625 210.5625 C 400.49203 210.5625 398.97977 210.92539 398.28125 211.375 C 398.0552 211.5205 397.95264 211.64608 397.96875 211.75 C 399.19512 211.70044 400.41772 211.65625 401.65625 211.65625 C 402.89478 211.65625 404.14863 211.70044 405.375 211.75 C 405.39111 211.64608 405.28855 211.5205 405.0625 211.375 C 404.36398 210.92539 402.82047 210.5625 401.65625 210.5625 z M 418 210.625 C 417.84304 210.68294 417.84742 210.86 418.03125 211.15625 C 418.35584 211.67935 417.68786 212.39739 416.4375 212.8125 C 416.37716 212.83253 416.33784 212.85588 416.28125 212.875 C 421.24992 213.68666 426.09017 214.87868 430.75 216.46875 C 431.54069 216.1787 432.26246 215.66042 432.46875 215.125 C 432.72635 214.45639 432.85178 213.90663 432.75 213.90625 C 431.91215 213.90313 420.13509 211.25827 418.96875 210.8125 C 418.48415 210.62728 418.15696 210.56706 418 210.625 z M 384.84375 210.6875 C 384.67146 210.70665 384.44535 210.76622 384.1875 210.84375 C 383.31424 211.10632 379.88086 211.91034 376.53125 212.65625 C 372.0604 213.65185 370.54719 214.33666 370.875 215.1875 C 371.06918 215.6915 371.7558 216.19961 372.53125 216.5 C 377.58272 214.77193 382.83846 213.49706 388.25 212.6875 C 388.1023 212.39494 387.43916 212.21875 386.21875 212.21875 C 385.26286 212.21875 384.8731 211.83828 385.21875 211.28125 C 385.50101 210.82638 385.36061 210.63006 384.84375 210.6875 z M 367.6875 215.96875 C 366.72413 215.82669 358.89634 219.53898 355.0625 222 C 352.97866 223.33766 350.68585 224.80795 349.9375 225.28125 C 344.30177 228.84551 341.19057 231.36407 335.84375 236.78125 C 332.47253 240.19681 329.16126 243.77284 328.5 244.71875 C 327.39349 246.30157 327.4707 246.46803 329.375 246.625 C 329.80484 246.66043 330.20562 246.61465 330.5625 246.5 C 331.09059 245.82019 331.6093 245.13282 332.15625 244.46875 C 332.10273 244.08525 331.89326 243.71804 331.4375 243.4375 C 330.09088 242.60857 331.20743 241.92054 333.9375 241.90625 C 334.10182 241.90539 334.26877 241.88531 334.4375 241.875 C 336.52328 239.53127 338.71388 237.30197 341.03125 235.1875 C 341.03404 235.11155 341.02862 235.07528 341.03125 235 C 341.12504 232.31776 341.35757 232.03125 343.625 232.03125 C 344.05036 232.03125 344.40652 232.01884 344.71875 231.96875 C 345.27527 231.5136 345.83874 231.06697 346.40625 230.625 C 346.48601 230.41993 346.56187 230.20027 346.625 229.9375 C 346.90326 228.77929 347.69715 227.79668 348.375 227.75 C 349.45421 227.67572 350.18308 227.58605 350.6875 227.46875 C 350.71288 227.46285 350.7258 227.44362 350.75 227.4375 C 351.03956 227.23851 351.33301 227.03943 351.625 226.84375 C 351.67569 226.70174 351.71875 226.54212 351.71875 226.34375 C 351.71875 225.05964 358.66171 220.39074 363.96875 218.125 C 366.07211 217.227 367.8125 216.30504 367.8125 216.0625 C 367.8125 216.01749 367.75172 215.97822 367.6875 215.96875 z M 435.625 215.96875 C 435.55591 215.97862 435.53125 216.01383 435.53125 216.0625 C 435.53125 216.30504 437.24039 217.227 439.34375 218.125 C 444.52822 220.33841 451.625 225.0565 451.625 226.28125 C 451.625 226.50143 451.71425 226.7244 451.84375 226.9375 C 452.24033 227.20426 452.63918 227.47713 453.03125 227.75 C 453.64846 227.90772 454.51737 228.00314 455.1875 227.96875 C 456.5288 227.89983 456.54826 227.76942 455.28125 226.375 C 454.52694 225.54483 453.58892 224.875 453.21875 224.875 C 452.84858 224.875 450.83727 223.71553 448.75 222.3125 C 445.07312 219.84095 436.6613 215.82074 435.625 215.96875 z M 457.6875 228.625 C 457.6369 228.61775 457.62115 228.63939 457.59375 228.65625 C 457.16767 228.91854 456.79746 229.69905 456.71875 230.5 C 457.51579 231.11757 458.31834 231.73157 459.09375 232.375 C 460.12975 231.79947 461.34838 231.76015 462.28125 232.53125 C 462.83888 232.99219 463.52182 234.60285 463.8125 236.09375 C 463.85866 236.33047 463.91143 236.54294 463.96875 236.75 C 465.10794 237.84355 466.23199 238.94207 467.3125 240.09375 C 467.72723 240.30331 468.1935 240.51146 468.71875 240.75 C 471.70537 242.10637 472.69542 242.93971 471.9375 243.40625 C 471.47175 243.69294 471.24933 244.08136 471.1875 244.46875 C 471.7354 245.13397 472.25228 245.81897 472.78125 246.5 C 473.13308 246.60833 473.54396 246.66002 473.96875 246.625 C 476.02965 246.45513 476.0319 246.43752 474.5 244.3125 C 471.66479 240.37952 459.25623 228.8499 457.6875 228.625 z M 326.90625 247.96875 C 326.20584 247.88683 325.27475 248.82342 324.5625 250.46875 C 324.13024 251.46729 323.16457 253.21546 322.40625 254.375 C 321.1304 256.32593 321.20487 256.33351 323.21875 254.1875 C 324.41572 252.91199 325.74931 251.875 326.1875 251.875 C 327.21383 251.875 328.16241 249.42338 327.53125 248.40625 C 327.36608 248.14007 327.13972 247.99606 326.90625 247.96875 z M 476.21875 248.4375 C 475.71401 248.39875 475.34375 248.59445 475.34375 249.15625 C 475.34375 250.14477 477.81163 253.29195 477.84375 252.34375 C 477.89252 250.90154 482.13483 257.25421 484.71875 262.625 C 486.11342 265.52388 487.43249 267.875 487.625 267.875 C 488.27073 267.875 484.88124 260.75931 482.21875 256.5 C 480.76908 254.18091 479.21255 251.41859 478.75 250.375 C 478.25748 249.26379 477.05998 248.50209 476.21875 248.4375 z M 321.03125 257.15625 C 320.9795 257.07498 320.61732 257.5542 320.03125 258.34375 C 319.28343 259.35122 317.94508 261.90793 317.03125 264.03125 C 314.6481 269.56862 315.73551 268.79036 318.4375 263.03125 C 320.36128 258.93084 321.11749 257.2917 321.03125 257.15625 z M 314.5625 270.875 C 314.06003 270.92199 313.56118 271.36535 313.3125 272.3125 C 313.05326 273.29987 313.13959 274.51204 313.53125 275 C 314.63124 276.37041 313.5905 281.55095 312.3125 281.0625 C 311.67211 280.81774 311.07414 281.48718 310.84375 282.6875 C 310.6302 283.80012 310.75477 284.50915 311.125 284.28125 C 311.49523 284.05334 311.75211 284.58322 311.6875 285.4375 C 311.63686 286.1071 312.0097 287.52584 312.5625 288.9375 C 313.26407 283.98673 314.37072 279.15733 315.84375 274.5 C 315.83091 274.17561 315.86467 273.84821 315.9375 273.46875 C 316.249 271.84579 315.39995 270.79668 314.5625 270.875 z M 488.3125 271.25 C 487.64319 271.25 487.38221 271.89369 487.375 274.15625 C 488.91627 278.96059 490.0632 283.94419 490.78125 289.0625 C 491.41995 287.66469 491.78549 286.24121 491.59375 285.6875 C 491.34668 284.97397 491.57366 284.73513 492.15625 285.09375 C 492.68236 285.41817 493.08222 285.58082 493.0625 285.4375 C 493.04276 285.29417 492.5142 283.08226 491.875 280.53125 C 490.85739 276.46997 490.71934 276.25833 490.65625 278.78125 C 490.56859 282.2891 490.05508 281.97347 489.4375 278.03125 C 489.18514 276.42033 489.32403 274.87518 489.78125 274.59375 C 490.94392 273.87805 489.79195 271.25 488.3125 271.25 z M 492.34375 288.5625 C 492.28572 288.54669 492.24055 288.56109 492.1875 288.59375 C 490.85324 289.41505 491.36295 293.47662 493.15625 296.40625 C 494.22115 298.14602 494.65069 299.87627 494.3125 300.9375 C 493.95586 302.05678 494.09375 302.45924 494.6875 302.09375 C 495.18861 301.78529 494.84417 303.16655 493.9375 305.15625 C 492.28275 308.78756 491.82292 312.98139 492.78125 315.46875 C 493.06392 316.20242 493.48591 316.78125 493.71875 316.78125 C 493.95162 316.78125 493.88578 316.16424 493.59375 315.40625 C 492.82428 313.4091 493.9682 308.25188 495.03125 308.90625 C 495.55778 309.23036 495.65447 309.0702 495.28125 308.46875 C 494.93637 307.91295 495.10216 306.91497 495.65625 306.25 C 496.36171 305.40339 496.48806 303.22048 496.0625 299 C 495.71632 295.56658 495.18677 293.42809 494.8125 294.03125 C 494.40324 294.69078 493.93096 293.76594 493.5625 291.59375 C 493.27782 289.9155 492.74995 288.67315 492.34375 288.5625 z M 311 288.59375 C 310.60583 288.72063 310.10718 290.0013 309.8125 291.71875 C 309.30944 294.6506 309.0706 294.97938 308.5 293.59375 C 307.91307 292.16849 307.80869 292.2996 307.78125 294.4375 C 307.76337 295.82896 307.49131 298.38568 307.1875 300.125 C 306.79926 302.34765 306.96364 303.3125 307.6875 303.3125 C 308.27712 303.3125 308.48063 302.72957 308.1875 301.96875 C 307.90589 301.23784 308.64934 299.03932 309.8125 297.0625 C 311.92964 293.46435 312.57951 289.45061 311.1875 288.59375 C 311.13656 288.56239 311.05631 288.57562 311 288.59375 z M 311.6875 304.21875 C 311.25366 304.34383 310.77286 304.46926 310.21875 304.5625 C 306.73888 305.14806 306.51991 305.58755 307.6875 309.21875 C 308.2621 311.00572 308.38304 311.05458 308.5 309.625 C 308.62114 308.14513 308.73462 308.19881 309.46875 310.03125 C 309.92898 311.1799 310.0836 312.98667 309.8125 314.0625 C 309.5414 315.13833 309.59132 316.47336 309.9375 317.03125 C 310.56286 318.03906 310.65973 318.45843 310.9375 322.90625 C 311.01716 324.18175 311.29998 325.21875 311.59375 325.21875 C 311.88752 325.21875 311.91936 323.89613 311.65625 322.28125 C 311.39313 320.66639 311.52296 319.16143 311.9375 318.90625 C 312.35205 318.65107 312.47516 315.62552 312.21875 312.21875 L 312.125 310.875 C 312.01767 309.81812 311.94544 308.75487 311.875 307.6875 L 311.78125 306.3125 L 311.75 306.03125 L 311.78125 306.03125 C 311.75259 305.42934 311.70427 304.8237 311.6875 304.21875 z M 491.21875 315.9375 C 490.74138 315.9375 490.64934 316.60427 491 317.4375 C 491.34159 318.24918 491.61803 320.42597 491.59375 322.28125 L 491.53125 325.65625 L 492.28125 322.6875 C 493.09129 319.42683 492.53223 315.9375 491.21875 315.9375 z M 489.5625 321.1875 C 489.03612 323.56882 488.3984 325.91243 487.6875 328.21875 C 488.85662 328.88779 489.5931 330.31513 489.125 331.96875 C 488.9267 332.66926 489.22693 332.53566 489.78125 331.65625 C 491.04518 329.65107 490.93868 322.88906 489.625 321.3125 C 489.60242 321.2854 489.58564 321.21919 489.5625 321.1875 z M 313.875 321.625 C 312.4162 325.84082 312.2263 327.50379 312.875 329.84375 C 313.77974 333.10729 314.32421 333.62688 314.4375 331.34375 C 314.54251 329.22779 314.70673 327.36666 314.9375 325.75 C 314.55956 324.38563 314.18946 323.01459 313.875 321.625 z M 487.125 329.96875 C 487.00386 330.33473 486.87569 330.69862 486.75 331.0625 C 487.00836 330.71323 487.1875 330.40489 487.1875 330.1875 C 487.1875 330.11118 487.16226 330.03816 487.125 329.96875 z M 316.21875 330 C 316.13527 330.29767 316.27574 330.71245 316.625 331.1875 C 316.48807 330.79293 316.35032 330.39704 316.21875 330 z M 318 334.90625 C 315.50849 338.16927 316.18533 343.20709 319.5 342.34375 C 320.59315 342.05903 321.40147 342.40786 321.75 343.3125 C 321.8515 343.57594 322.00753 343.76771 322.1875 343.9375 C 320.6324 341.02024 319.23212 338.00381 318 334.90625 z M 485.3125 335 C 484.10542 338.02491 482.70296 340.95968 481.1875 343.8125 C 482.4909 342.97829 483.88929 341.48831 484.875 339.5625 C 485.23961 338.85016 485.31532 339.42035 485.0625 340.84375 C 484.63137 343.27111 484.67025 343.30574 485.9375 341.6875 C 487.33715 339.90019 487.03758 337.22722 485.3125 335 z M 318.15625 339 C 318.23325 339.01161 318.30489 339.15398 318.40625 339.40625 C 318.6508 340.015 318.62511 340.75101 318.34375 341.03125 C 318.06241 341.31146 317.86946 340.79523 317.90625 339.90625 C 317.93165 339.29224 318.02791 338.98064 318.15625 339 z M 321.1875 347.5625 L 323.125 350.6875 C 325.19003 354.03745 325.46875 354.33382 325.46875 353.09375 C 325.46875 352.65579 324.48901 351.23887 323.3125 349.9375 L 321.1875 347.5625 z M 480.5 349.71875 C 479.75351 350.02063 477.93966 352.47456 477.90625 353.375 C 477.89144 353.77426 478.60871 353.18874 479.5 352.09375 C 480.39129 350.99877 480.94756 349.94806 480.75 349.75 C 480.69597 349.69584 480.60664 349.67562 480.5 349.71875 z M 474.09375 355.09375 C 472.19715 357.66032 470.15273 360.12116 468 362.46875 C 468.01085 362.70251 468.04212 362.93173 468.09375 363.09375 C 468.4197 364.1166 467.80457 365.62036 466.375 367.3125 C 463.96152 370.16924 462.625 370.63971 462.625 368.65625 C 462.625 368.40231 462.57096 368.20544 462.46875 368.03125 C 461.2434 369.15436 459.9738 370.25783 458.6875 371.3125 C 458.70174 371.34816 458.70129 371.40937 458.71875 371.4375 C 458.87989 371.69718 458.41318 371.94914 457.65625 372.125 C 456.51789 373.031 455.36979 373.89898 454.1875 374.75 C 454.99262 374.5011 455.62113 374.42546 455.84375 374.5625 C 457.26462 375.43712 455.76638 377.38701 453.25 377.9375 C 451.88798 378.23545 450.33385 379.27975 449.8125 380.25 C 448.87428 381.99604 448.90346 382.00139 451.21875 380.1875 C 452.50531 379.17955 453.92291 378.34375 454.375 378.34375 C 456.32013 378.34375 472.59549 362.97783 471.15625 362.5 C 469.80816 362.05243 470.04669 360.17963 471.625 358.875 C 472.2427 358.3644 473.25305 356.78161 474.09375 355.09375 z M 478.28125 355.15625 L 476.125 357.0625 C 474.93078 358.10609 473.48959 358.96875 472.9375 358.96875 C 471.83453 358.96875 471.62249 360.03238 472.53125 360.9375 C 472.84948 361.25451 473.32289 361.23059 473.59375 360.875 C 473.86461 360.51941 475.03026 359.07896 476.1875 357.6875 L 478.28125 355.15625 z M 325.9375 355.96875 C 325.84796 356.00473 326.38407 356.73439 327.59375 358.28125 C 328.93074 359.9909 330.34575 361.19835 330.71875 360.96875 C 331.75042 360.3337 331.50983 358.96875 330.375 358.96875 C 329.82291 358.96875 328.43915 358.10609 327.28125 357.0625 C 326.46642 356.3281 326.00714 355.94076 325.9375 355.96875 z M 330.03125 356.15625 C 330.34592 357.15796 331.16324 358.4375 331.84375 359 C 333.38682 360.2755 333.55483 363.53063 332.03125 362.65625 C 331.44914 362.32217 331.92953 363.12215 333.09375 364.40625 C 339.69794 371.69052 348.06846 378.89681 348.9375 378.03125 C 349.2171 377.75277 349.01204 377.5 348.46875 377.5 C 347.46672 377.5 347.09141 374.81132 347.96875 373.9375 C 347.9757 373.93057 347.99206 373.94352 348 373.9375 C 345.50215 372.07993 343.1329 370.06974 340.84375 367.96875 C 340.76257 368.15892 340.6875 368.37367 340.6875 368.65625 C 340.6875 370.63971 339.35098 370.16924 336.9375 367.3125 C 335.43949 365.53934 334.88864 364.13398 335.25 363 C 335.29545 362.85737 335.30793 362.66358 335.3125 362.46875 C 333.46539 360.45349 331.69072 358.33384 330.03125 356.15625 z M 350.59375 378.375 C 350.0449 378.38531 350.55453 379.12423 351.71875 380.03125 C 353.96046 381.77771 354.25 381.95194 354.25 381.375 C 354.25 380.589 351.53303 378.35742 350.59375 378.375 z M 355.03125 378.65625 C 355.07831 378.75779 355.09375 378.85898 355.09375 378.9375 C 355.09375 379.55083 355.50294 380.03125 356 380.03125 C 356.25783 380.03125 356.43222 379.83466 356.5 379.53125 C 356.01032 379.24654 355.51501 378.94988 355.03125 378.65625 z M 358.875 380.875 C 359.05604 382.67036 358.85044 383.1688 358 382.84375 C 355.75825 381.98697 356.77009 383.24885 359.75 385 C 364.17598 387.60091 379.20838 392.48937 386.4375 393.6875 C 389.93015 394.26636 392.95314 394.98931 393.1875 395.3125 C 393.42186 395.63567 394.76071 396.11378 396.15625 396.34375 C 399.83817 396.9505 409.66915 396.12806 410 395.1875 C 410.15523 394.74621 411.16908 394.375 412.28125 394.375 C 413.39342 394.375 417.28413 393.7302 420.90625 392.9375 C 427.34447 391.52847 427.42802 391.48176 424.53125 390.75 C 423.37954 390.45906 421.54445 390.10902 419.84375 389.84375 C 419.83368 389.84218 419.82256 389.84532 419.8125 389.84375 C 418.04289 390.20586 416.24328 390.49342 414.4375 390.75 C 414.46305 390.9057 414.49519 391.06213 414.53125 391.25 C 414.9166 393.25775 414.69152 393.42848 410.625 393.875 C 408.25239 394.13552 405.6587 394.36615 404.84375 394.40625 C 404.0288 394.44637 403.34375 394.75151 403.34375 395.09375 C 403.34375 395.43597 402.41422 395.71875 401.25 395.71875 C 400.08578 395.71875 399.125 395.48125 399.125 395.1875 C 399.125 394.60395 398.89952 394.5528 393 393.84375 C 389.45437 393.41761 388.96875 393.12752 388.96875 391.34375 C 388.96875 391.12142 388.9424 390.93529 388.90625 390.75 C 386.99402 390.47829 385.09031 390.17119 383.21875 389.78125 C 382.54482 389.92993 381.81923 390.09427 381 390.3125 C 376.83679 391.42153 374.5625 390.46671 374.5625 387.59375 C 374.5625 387.56027 374.56394 387.53222 374.5625 387.5 C 372.66372 386.90084 370.77958 386.2506 368.9375 385.53125 C 368.90031 385.52771 368.88142 385.53481 368.84375 385.53125 C 365.70037 385.23454 362.59203 384.93179 361.9375 384.84375 C 360.80862 384.69184 360.22258 382.85492 360.6875 381.8125 C 360.07436 381.49845 359.47989 381.20261 358.875 380.875 z M 444.3125 380.9375 C 443.8784 381.17157 443.43834 381.39789 443 381.625 C 443.53948 381.76511 443.96964 381.53808 444.3125 380.9375 z M 446.03125 382.625 C 445.6155 382.62029 444.57239 383.03746 443.15625 383.84375 C 441.432 384.82547 438.28078 385.20282 435.75 385 C 433.14852 386.06557 430.49801 386.99022 427.78125 387.8125 C 427.87357 388.124 427.90625 388.50453 427.90625 388.96875 C 427.90625 390.8226 428.18129 391.02472 429.8125 390.53125 C 433.36142 389.45764 443.20759 385.16902 445.0625 383.875 C 446.22244 383.06578 446.447 382.62971 446.03125 382.625 z M 369.0625 387.1875 C 369.20457 387.1284 369.49825 387.16851 369.875 387.3125 C 370.59772 387.58873 371.1875 387.97396 371.1875 388.15625 C 371.1875 388.83925 369.55973 388.45757 369.0625 387.65625 C 368.91418 387.41723 368.92043 387.2466 369.0625 387.1875 z "
           transform="matrix(0.79088314,0,0,0.79053733,326.99643,120.39516)"
           id="path3634" />
        <path
           inkscape:connector-curvature="0"
           id="path3632"
           d="m 630.43678,430.72514 c -2.7109,-0.98571 -2.24205,-1.76469 0.99598,-1.65479 2.12252,0.072 2.89419,0.39028 3.0625,1.26298 0.25526,1.32363 -1.1284,1.45721 -4.05848,0.39181 z m 24.60937,0.10819 c -0.79244,-1.2765 0.43309,-2 3.38774,-2 3.66266,0 3.83834,0.86443 0.38502,1.89447 -3.14579,0.93831 -3.25389,0.94133 -3.77276,0.10553 z m 10.25292,-3.7761 c -0.13809,-0.68456 0.39577,-1.736 1.21146,-2.38598 1.26993,-1.01194 1.6827,-1.0462 3.1948,-0.2652 1.63556,0.84477 1.66867,0.95768 0.56988,1.94347 -0.6416,0.57563 -1.96816,1.24572 -2.9479,1.4891 -1.40233,0.34836 -1.83388,0.1821 -2.02824,-0.78139 z m -46.17203,-0.94637 c -1.23106,-1.08174 -1.30945,-1.30303 -0.35424,-1 0.67465,0.21402 1.95534,0.38913 2.84598,0.38913 0.99298,0 1.61934,0.3868 1.61934,1 0,1.4435 -2.27001,1.22863 -4.11108,-0.38913 z m -8.27731,-3.27753 c -0.22763,-0.36667 -0.11253,-0.66667 0.25578,-0.66667 0.3683,0 0.85588,0.3 1.0835,0.66667 0.22763,0.36666 0.11252,0.66666 -0.25578,0.66666 -0.3683,0 -0.85588,-0.3 -1.0835,-0.66666 z m -3.0134,-2.93415 c 0,-0.51379 -1.09266,-1.57597 -2.42814,-2.36043 -1.33548,-0.78445 -2.25028,-1.60335 -2.03288,-1.81978 0.51565,-0.51336 5.13067,1.66742 5.13067,2.42444 0,0.31948 0.18291,1.0554 0.40646,1.63539 0.22356,0.57999 0.0729,1.05453 -0.33482,1.05453 -0.40771,0 -0.74129,-0.42037 -0.74129,-0.93415 z m 73.31896,-1.7437 c -0.22806,-0.36736 0.49241,-1.18619 1.60104,-1.81963 1.91964,-1.09683 3.31136,-3.50252 2.02624,-3.50252 -0.33382,0 -0.60695,-0.68325 -0.60695,-1.51833 0,-0.83509 -0.48275,-2.20449 -1.07277,-3.04311 -0.59002,-0.83864 -0.89435,-1.70241 -0.67629,-1.9195 0.57682,-0.57426 3.74397,3.01527 3.83692,4.34862 0.37908,5.4379 0.3374,5.56684 -2.21883,6.86532 -1.53858,0.78155 -2.63157,1.00441 -2.88936,0.58915 z m -7.06667,-1.7063 c -0.72598,-0.87086 -0.71135,-1.15452 0.0854,-1.65645 2.13367,-1.34414 4.09303,-0.0411 2.61118,1.73646 -1.03424,1.24064 -1.6099,1.22356 -2.69659,-0.08 z m -76.73549,-1.31127 c -0.2181,-0.56582 -0.21592,-1.20856 0.005,-1.42834 0.47695,-0.47482 2.44267,1.03171 2.44267,1.87205 0,1.00606 -2.03058,0.63793 -2.44749,-0.44371 z m 92.17963,0.49542 c 0,-0.29334 0.36161,-0.89334 0.80357,-1.33334 1.07175,-1.06698 1.875,-1.01186 1.875,0.12868 0,0.51077 -0.47665,1.11077 -1.05923,1.33333 -1.38634,0.52963 -1.61934,0.51111 -1.61934,-0.12867 z m -32.8125,-0.97626 c 0,-0.94868 1.59133,-3.82374 2.11642,-3.82374 0.97868,0 0.61,1.33796 -0.77713,2.82024 -0.73661,0.78715 -1.33929,1.23872 -1.33929,1.0035 z m -6.02678,-3.15708 c -0.76223,-0.4904 -0.47962,-0.64871 1.17187,-0.65646 1.19699,-0.005 2.17634,0.2898 2.17634,0.65646 0,0.8468 -2.03204,0.8468 -3.34821,0 z m 4.58286,-4.29574 c -0.85018,-1.85764 -2.98504,-2.2457 -5.36842,-0.97583 -0.80175,0.42717 -1.61435,0.48233 -1.96487,0.13337 -0.35051,-0.34895 1.12041,-0.94834 3.55668,-1.4493 3.79058,-0.77946 4.23039,-0.75079 5.02228,0.32737 1.03677,1.41157 1.11601,2.69545 0.2011,3.25838 -0.36674,0.22565 -1.01779,-0.35665 -1.44677,-1.29399 z m -67.52929,-2.37092 c 0,-0.36667 0.30134,-0.66667 0.66964,-0.66667 0.3683,0 0.66964,0.3 0.66964,0.66667 0,0.36666 -0.30134,0.66666 -0.66964,0.66666 -0.3683,0 -0.66964,-0.3 -0.66964,-0.66666 z m 112.5,0 c 0,-0.36667 0.30134,-0.66667 0.66964,-0.66667 0.3683,0 0.66964,0.3 0.66964,0.66667 0,0.36666 -0.30134,0.66666 -0.66964,0.66666 -0.3683,0 -0.66964,-0.3 -0.66964,-0.66666 z m -13.80804,-1.63474 c -0.20522,-0.53245 -0.17798,-1.28245 0.0605,-1.66667 0.77994,-1.25637 1.69393,-0.73403 1.69393,0.96807 0,1.80726 -1.15055,2.26538 -1.75447,0.6986 z m -74.28606,-1.75668 c -0.69008,-1.11162 0.86197,-2.38634 1.78575,-1.46667 0.77272,0.76928 0.2891,2.19142 -0.74522,2.19142 -0.32484,0 -0.79307,-0.32614 -1.04053,-0.72475 z m 10.81501,0.16224 c -0.23173,-0.37328 -0.095,-0.87946 0.30379,-1.12485 1.02956,-0.63347 1.69384,0.23423 0.83436,1.08989 -0.48092,0.47879 -0.85549,0.49029 -1.13815,0.0349 z m -37.69947,-4.38687 c -1.26225,-1.94054 -1.32655,-2.32258 -0.44746,-2.65842 1.76016,-0.67243 1.94226,-0.46683 2.01446,2.27447 0.0386,1.46666 0.0335,2.66295 -0.0113,2.65841 -0.0449,-0.005 -0.74492,-1.02805 -1.55567,-2.27446 z m 116.85468,-0.0993 c -0.31187,-2.65956 0.10297,-3.18021 1.95417,-2.4526 1.2344,0.48518 1.22795,0.57068 -0.20068,2.65974 l -1.47609,2.15844 -0.2774,-2.36558 z m -87.33086,-1.30545 c -1.69072,-2.56889 -0.48736,-2.84702 1.92538,-0.44501 2.00878,1.99986 2.05005,2.13248 0.66361,2.13248 -0.84286,0 -1.9558,-0.7254 -2.58899,-1.68747 z m 64.54232,-3.20361 -1.66127,-1.53277 1.40961,-1.69211 c 0.77529,-0.93065 1.75722,-2.26028 2.18206,-2.95474 0.73227,-1.19696 0.80652,-1.17594 1.42757,0.40404 0.38817,0.98754 0.4145,2.12419 0.0646,2.7895 -0.32478,0.61756 -0.59051,1.72486 -0.59051,2.46066 0,2.0366 -0.99427,2.22106 -2.83206,0.52542 z m -69.83427,-1.79183 c -0.2406,-0.38756 -0.97741,-0.53404 -1.63737,-0.32551 -0.80023,0.25286 -1.29488,-0.0157 -1.48501,-0.80622 -0.41678,-1.73288 0.0987,-3.52294 1.00522,-3.49047 1.05367,0.0377 3.87916,4.51188 3.13751,4.96821 -0.3206,0.19726 -0.77976,0.0415 -1.02035,-0.34601 z m -31.79796,-3.10265 c 0,-1.12872 0.5593,-2.5117 1.27744,-3.15871 1.25082,-1.12695 1.25667,-1.09095 0.28118,1.72785 -1.26525,3.6561 -1.55862,3.92542 -1.55862,1.43086 z m 132.39385,-0.79765 c -1.36459,-3.31688 -1.21366,-4.00189 0.47295,-2.14649 0.68857,0.75747 1.07349,2.04958 0.94456,3.17075 -0.20871,1.81487 -0.2667,1.77297 -1.41751,-1.02426 z m -68.27554,-3.20967 c -2.56313,-0.66684 -0.94913,-1.54045 2.84598,-1.54045 4.02548,0 5.33788,0.82565 2.51116,1.57981 -1.65895,0.4426 -3.55825,0.42865 -5.35714,-0.0393 z m -38.00223,-1.87378 c 0,-0.55 0.30134,-1 0.66964,-1 0.3683,0 0.66964,0.45 0.66964,1 0,0.55 -0.30134,1 -0.66964,1 -0.3683,0 -0.66964,-0.45 -0.66964,-1 z m 80.35714,0 c 0,-0.55 0.30134,-1 0.66964,-1 0.36831,0 0.66964,0.45 0.66964,1 0,0.55 -0.30133,1 -0.66964,1 -0.3683,0 -0.66964,-0.45 -0.66964,-1 z m -54.46515,-1.9253 c -1.2578,-1.91112 -0.8323,-4.22416 0.56474,-3.06988 1.10742,0.915 1.63604,2.9684 1.01974,3.96116 -0.32578,0.52478 -0.84455,0.23298 -1.58448,-0.89128 z m -52.67771,-2.03536 c 0,-0.89502 0.26708,-1.79165 0.59351,-1.9925 0.67044,-0.41251 1.53577,2.21995 1.00878,3.06885 -0.6924,1.11535 -1.60229,0.50413 -1.60229,-1.07635 z m 81.02679,0.29399 c 0,-1.0041 0.34965,-1.36406 1.17187,-1.20642 0.64453,0.12357 1.17188,0.66646 1.17188,1.20642 0,0.53996 -0.52735,1.08285 -1.17188,1.20642 -0.82222,0.15764 -1.17187,-0.20232 -1.17187,-1.20642 z M 710.30194,377 c 0.0161,-3.9284 1.0646,-4.8903 1.9337,-1.77401 1.01564,3.64179 0.9262,4.27401 -0.60466,4.27401 -1.10302,0 -1.33748,-0.44104 -1.32904,-2.5 z m -85.95847,-3.14531 c -0.20747,-0.53826 -0.0758,-1.16409 0.29251,-1.39073 0.8434,-0.51893 2.7326,0.98198 2.23828,1.77825 -0.57586,0.92763 -2.11469,0.69199 -2.53079,-0.38752 z m 38.60861,0.54669 c -1.21883,-0.48917 -0.23854,-2.23471 1.255,-2.23471 0.86926,0 1.24316,0.37771 1.10023,1.11142 -0.23597,1.2113 -1.1042,1.62539 -2.35523,1.12329 z m -90.10319,-2.4052 c -0.39814,-1.07808 0.1083,-2.49618 0.89146,-2.49618 0.7906,0 0.80261,2.47184 0.0144,2.95683 -0.32972,0.20287 -0.73733,-0.005 -0.90582,-0.46065 z m 142.59699,-0.0916 c -0.27402,-0.69414 -0.34045,-1.41914 -0.14763,-1.6111 0.61075,-0.60804 1.14814,0.38837 0.89222,1.65434 -0.23453,1.16022 -0.27035,1.15814 -0.74459,-0.0433 z M 575.02383,367.5 c 0,-0.36666 0.31913,-0.66666 0.70917,-0.66666 0.39004,0 0.52292,0.3 0.2953,0.66666 -0.22763,0.36667 -0.54675,0.66667 -0.70917,0.66667 -0.16241,0 -0.2953,-0.3 -0.2953,-0.66667 z m 137.37724,0.0333 c 0.14732,-0.44 0.48632,-0.7775 0.75334,-0.75 0.8007,0.0825 0.64563,0.99686 -0.21763,1.28333 -0.44196,0.14667 -0.68304,-0.0933 -0.53571,-0.53333 z m -46.85252,-1.86667 c 0.12614,-1.09143 0.61837,-1.83333 1.21635,-1.83333 0.59799,0 1.09022,0.7419 1.21636,1.83333 0.17254,1.49289 -0.0533,1.83333 -1.21636,1.83333 -1.16302,0 -1.3889,-0.34044 -1.21635,-1.83333 z m -45.15641,-3.21797 c -0.27623,-0.27734 -0.50224,-1.11425 -0.50224,-1.85981 0,-0.98119 0.20229,-1.15417 0.73245,-0.62637 0.40284,0.40106 0.62884,1.23797 0.50223,1.85981 -0.12662,0.62184 -0.45622,0.90371 -0.73244,0.62637 z m 48.70741,-2.29669 c -0.63734,-1.02666 0.5876,-2.16695 2.02085,-1.88119 1.03888,0.20712 1.01989,0.34567 -0.19721,1.43928 -0.95352,0.85676 -1.486,0.98579 -1.82364,0.44191 z m -99.42261,-1.48534 c 0.008,-1.21296 0.13448,-1.30864 0.65939,-0.5 0.83901,1.29251 0.83901,2 0,2 -0.3683,0 -0.66503,-0.675 -0.65939,-1.5 z m 10.03439,-0.5 c 0,-1.39259 0.2849,-2.01657 0.83706,-1.83333 0.46038,0.15278 0.83705,0.97778 0.83705,1.83333 0,0.85555 -0.37667,1.68055 -0.83705,1.83333 -0.55216,0.18324 -0.83706,-0.44074 -0.83706,-1.83333 z m 138.20669,0.28637 c 0.22517,-0.58415 0.40938,-1.20526 0.40938,-1.38024 0,-0.17498 0.30134,-0.13274 0.66965,0.0939 0.99387,0.61152 0.81248,1.46945 -0.40938,1.93623 -0.78976,0.30172 -0.96928,0.1275 -0.66965,-0.64986 z m -25.46957,-2.60661 c 0.23789,-0.61718 0.43253,-1.83819 0.43253,-2.71336 0,-1.16503 0.27869,-1.48475 1.04051,-1.19371 1.53665,0.58705 1.02014,4.47673 -0.63599,4.78946 -0.95661,0.18065 -1.16296,-0.0369 -0.83705,-0.88239 z m -25.57222,-0.42331 c -1.69182,-0.63669 -1.65884,-2.13012 0.0544,-2.46103 0.60679,-0.1172 1.25273,0.40255 1.51235,1.21691 0.57395,1.80035 0.36088,1.96955 -1.56671,1.24412 z m -92.31852,-5.7407 c -1.09029,-2.47905 -1.23917,-3.4771 -0.67361,-4.51575 0.67706,-1.24341 0.75479,-1.19845 1.15256,0.66667 0.2346,1.1 0.82185,2.62664 1.305,3.39254 0.59083,0.9366 0.67172,1.76032 0.24707,2.51575 -0.52063,0.92619 -0.87687,0.56501 -2.03102,-2.05921 z m 138.17834,1.50487 c -0.20763,-0.53866 0.0596,-1.81366 0.59387,-2.83333 0.53426,-1.01968 0.99616,-2.75396 1.02645,-3.85396 l 0.055,-2 0.85036,2.33334 c 0.74562,2.04591 0.68977,2.64128 -0.45337,4.83333 -1.4708,2.82033 -1.54922,2.87788 -2.07238,1.52062 z m -88.15865,-5.60816 c 0,-0.32315 1.0541,-1.38797 2.34244,-2.36627 1.6542,-1.2561 2.55958,-2.63722 3.08147,-4.70062 0.69978,-2.76675 0.8243,-2.88321 2.34506,-2.19339 1.59752,0.72464 2.18579,1.84782 0.96781,1.84782 -0.58617,0 -2.01333,2.65891 -2.9521,5.5 -0.21203,0.64167 -0.97985,1.16667 -1.70628,1.16667 -0.72643,0 -1.50702,0.3 -1.73465,0.66666 -0.51082,0.82286 -2.34375,0.88474 -2.34375,0.0791 z m 37.83483,-0.0791 c -0.22763,-0.36666 -1.00822,-0.66666 -1.73465,-0.66666 -0.72643,0 -1.48689,-0.525 -1.68992,-1.16667 -0.20303,-0.64167 -0.95499,-2.33507 -1.67103,-3.76311 -1.17337,-2.34015 -1.18555,-2.50467 -0.12348,-1.66667 1.89106,1.49209 7.56283,7.16526 7.56283,7.5647 0,0.63855 -1.91293,0.3924 -2.34375,-0.30159 z m 22.87946,-7.11111 c -0.69467,-0.69158 -0.52489,-2.88889 0.22321,-2.88889 0.36831,0 0.66965,0.75 0.66965,1.66667 0,1.74537 -0.15468,1.95712 -0.89286,1.22222 z M 575.1349,336.79313 c 0.12306,-0.83712 0.62579,-1.65395 1.11716,-1.81517 0.60703,-0.19918 0.82168,0.19472 0.66964,1.22889 -0.12307,0.83712 -0.62579,1.65395 -1.11716,1.81518 -0.60704,0.19918 -0.82168,-0.19472 -0.66964,-1.2289 z m 137.62331,0.9402 c -0.71335,-0.71018 -0.53736,-2.9 0.23306,-2.9 0.99009,0 1.61347,1.97278 0.86032,2.72259 -0.34969,0.34813 -0.84171,0.42796 -1.09338,0.17741 z m -70.43527,-2.23334 c -1.01924,-0.43603 -0.61917,-0.58171 1.67411,-0.6096 1.65736,-0.0202 3.4654,0.25417 4.01785,0.6096 1.29635,0.83404 -3.74238,0.83404 -5.69196,0 z m -36.70149,-5.22401 c -0.62333,-1.40654 -1.13333,-2.75654 -1.13333,-3 0,-0.94116 1.40379,-0.38304 1.82103,0.72401 0.24185,0.64167 0.88403,1.49829 1.42708,1.9036 0.98348,0.73403 0.66897,2.92974 -0.41965,2.92974 -0.30899,0 -1.07179,-1.15081 -1.69513,-2.55735 z m 22.68204,1.41943 c -0.3634,-0.95013 -0.28648,-1.02671 0.37487,-0.37319 0.45764,0.45222 0.66339,0.99016 0.45722,1.19541 -0.20618,0.20526 -0.58061,-0.16474 -0.83209,-0.82222 z m 52.97035,0.69347 c -0.76009,-0.7567 -0.49213,-2.79519 0.44112,-3.35576 0.48815,-0.29322 1.08137,-1.05813 1.31827,-1.69979 0.23689,-0.64167 0.70927,-1.16667 1.04973,-1.16667 1.32315,0 1.32552,2.10336 0.005,4.33173 -1.38194,2.3318 -1.97233,2.72843 -2.81401,1.89049 z m -4.12272,-4.87801 c -0.4939,-0.79559 0.13297,-2.01088 1.03724,-2.01088 0.81482,0 0.8201,1.80442 0.007,2.30487 -0.34286,0.21095 -0.81265,0.0787 -1.04399,-0.29399 z m -91.96564,-1.79007 c 0.28387,-1.46746 2.89639,-1.66662 2.89639,-0.22081 0,0.55 -0.70482,1.09937 -1.56627,1.22081 -1.21461,0.17123 -1.51325,-0.0533 -1.33012,-1 z m 116.02997,0.38777 c -0.24746,-0.39861 -0.16496,-1.00845 0.18332,-1.35519 0.84062,-0.83687 2.86613,-0.0233 2.86613,1.15127 0,1.09429 -2.3972,1.2546 -3.04945,0.20392 z m -86.68269,-2.63203 c 0,-1.41458 2.20677,-3.97655 3.42523,-3.97655 1.74781,0 1.5807,0.78016 -0.61589,2.87528 -1.99631,1.90408 -2.80934,2.22279 -2.80934,1.10127 z m -25.44643,-1.1269 c 0,-0.69381 0.43049,-1.84381 0.95664,-2.55556 0.93211,-1.2609 0.96919,-1.26184 1.44586,-0.0368 0.51894,1.33368 -0.29951,3.15595 -1.61328,3.59193 -0.43407,0.14405 -0.78922,-0.30576 -0.78922,-0.99956 z m 92.22501,0.74325 c -0.57572,-0.57317 0.70695,-2.92623 1.59512,-2.92623 0.38097,0 0.59637,0.6515 0.47868,1.44778 -0.2195,1.48511 -1.29613,2.25266 -2.0738,1.47845 z m 17.06071,-0.3929 c -0.96097,-0.95669 -1.05677,-2.96552 -0.16753,-3.51266 0.7173,-0.44134 2.04253,1.67953 2.04253,3.26884 0,1.24544 -0.76853,1.34538 -1.875,0.24382 z M 622.56848,321.206 c 0,-0.57163 0.30134,-1.03934 0.66964,-1.03934 0.3683,0 0.66964,0.28229 0.66964,0.62732 0,0.34503 -0.30134,0.81273 -0.66964,1.03935 -0.3683,0.22661 -0.66964,-0.0557 -0.66964,-0.62733 z m 81.11064,-2.2631 c -0.93949,-1.69705 -0.49894,-2.78947 0.65975,-1.63594 0.3967,0.39494 0.6045,1.27494 0.46177,1.95555 -0.23288,1.11054 -0.34793,1.07776 -1.12152,-0.31961 z m -119.28029,-0.40356 c 0,-1.00078 1.20224,-2.06468 1.73442,-1.53486 0.46707,0.46499 -0.45761,2.49551 -1.13642,2.49551 -0.3289,0 -0.598,-0.43229 -0.598,-0.96065 z m 99.10715,-0.70601 c 0,-0.55 0.30134,-1 0.66964,-1 0.3683,0 0.66964,0.45 0.66964,1 0,0.55 -0.30134,1 -0.66964,1 -0.3683,0 -0.66964,-0.45 -0.66964,-1 z m -71.65179,-1 c 0,-0.36667 0.60268,-0.66667 1.33929,-0.66667 0.7366,0 1.33928,0.3 1.33928,0.66667 0,0.36666 -0.60268,0.66666 -1.33928,0.66666 -0.73661,0 -1.33929,-0.3 -1.33929,-0.66666 z m 13.39286,-0.26201 c 0,-0.51077 0.404,-1.08302 0.89778,-1.27165 1.22566,-0.46824 2.72864,0.54617 2.16188,1.45912 -0.65997,1.06311 -3.05966,0.91608 -3.05966,-0.18747 z m -37.93253,-2.05824 c 0.23789,-0.61717 0.43253,-1.2476 0.43253,-1.40094 0,-0.15335 0.4741,-0.27881 1.05356,-0.27881 1.48941,0 0.90973,2.25963 -0.65673,2.55996 -0.9497,0.18208 -1.15488,-0.0357 -0.82936,-0.88021 z m 67.80282,-0.0688 c -0.25026,-0.64928 -0.1006,-0.95406 0.38874,-0.79167 1.00101,0.33219 1.55216,1.84737 0.67199,1.84737 -0.3596,0 -0.83692,-0.47506 -1.06073,-1.0557 z m 31.06721,1.5e-4 c 0,-0.58056 0.35783,-0.93681 0.7952,-0.79167 1.24166,0.41205 1.44761,1.84722 0.26506,1.84722 -0.58314,0 -1.06026,-0.475 -1.06026,-1.05555 z m 13.83929,0.61111 c -0.78993,-0.78641 -0.47566,-2.22222 0.48638,-2.22222 0.77829,0 1.74576,1.32331 1.74576,2.38785 0,0.44934 -1.74446,0.31989 -2.23214,-0.16563 z m -17.59491,-3.8368 c -0.20095,-0.52134 -0.0241,-1.58268 0.39294,-2.35851 0.832,-1.5477 0.34323,-4.02691 -0.7939,-4.02691 -0.39495,0 -1.11841,0.525 -1.60768,1.16666 -0.83149,1.09049 -0.89097,1.09202 -0.91088,0.0235 -0.0309,-1.657 1.95833,-2.42635 4.4988,-1.73999 2.47969,0.66994 2.74627,1.90138 1.20604,5.57128 -1.01376,2.41549 -2.16308,2.97833 -2.78532,1.36401 z m -23.0301,-4.67941 c 0,-0.57164 0.30134,-1.03935 0.66965,-1.03935 0.3683,0 0.66964,0.2823 0.66964,0.62733 0,0.34502 -0.30134,0.81273 -0.66964,1.03934 -0.36831,0.22661 -0.66965,-0.0557 -0.66965,-0.62732 z m -54.16413,-0.9779 c -0.74394,-0.46905 -0.65325,-0.73093 0.45821,-1.32312 2.68241,-1.4292 4.48537,-0.66987 2.67914,1.12834 -0.94677,0.94256 -1.86128,0.99934 -3.13735,0.19478 z m -6.65908,-2.49325 c 0.12975,-0.67075 0.78716,-1.32524 1.46091,-1.45442 0.88466,-0.16961 1.15945,0.10397 0.98909,0.98469 -0.12976,0.67076 -0.78717,1.32524 -1.46091,1.45442 -0.88466,0.16961 -1.15946,-0.10397 -0.98909,-0.98469 z m 89.61786,-0.28375 c 0,-0.95406 0.36061,-1.31307 1.16418,-1.15901 1.74558,0.33468 1.94026,2.54123 0.2242,2.54123 -0.95832,0 -1.38838,-0.42815 -1.38838,-1.38222 z m -13.75522,0.005 c -0.24276,-0.39106 -0.33588,-0.78186 -0.20693,-0.86844 3.34244,-2.2441 4.11331,-2.51823 4.66113,-1.65753 0.8533,1.34067 0.73141,1.78441 -0.6996,2.54687 -1.66691,0.88813 -3.19555,0.87962 -3.7546,-0.0209 z m -64.31716,-0.86829 c -0.50261,-1.30395 0.18218,-2.4207 1.48436,-2.4207 0.65744,0 0.93662,0.5068 0.79754,1.44778 -0.25984,1.75802 -1.7366,2.38765 -2.2819,0.97292 z m 56.97863,-1.08736 c -0.22763,-0.36667 0.22438,-0.66667 1.00446,-0.66667 0.78008,0 1.23209,0.3 1.00446,0.66667 -0.22762,0.36666 -0.67963,0.66666 -1.00446,0.66666 -0.32483,0 -0.77684,-0.3 -1.00446,-0.66666 z m -64.62054,-0.68759 c 0,-0.85929 1.90786,-1.63525 2.52065,-1.02519 0.24968,0.24857 0.0107,0.73103 -0.53111,1.07215 -1.29627,0.81614 -1.98954,0.79977 -1.98954,-0.047 z m 82.38546,0.047 c -0.54178,-0.34112 -0.78079,-0.82359 -0.53111,-1.07215 0.61279,-0.61007 2.52065,0.16589 2.52065,1.02518 0,0.84674 -0.69327,0.86311 -1.98954,0.047 z m -15.06164,-3.76334 c -0.8303,-0.82662 -0.89882,-1.28245 -0.30065,-2 1.10355,-1.32379 2.82945,-1.14892 3.79112,0.38412 0.69746,1.11185 0.62615,1.41887 -0.46454,2 -1.67088,0.89025 -1.75683,0.87934 -3.02593,-0.38412 z m -28.31712,-1.58269 c -2.48417,-1.05033 -1.75474,-1.34668 3.31473,-1.34668 3.44939,0 4.61583,0.20469 4.09894,0.71928 -1.00862,1.00414 -5.60303,1.39295 -7.41367,0.6274 z m -12.89063,-1.68001 c -0.72056,-0.86436 -0.41377,-1 2.26176,-1 2.30502,0 3.09538,0.25533 3.09538,1 0,0.69151 -0.69773,1 -2.26175,1 -1.24397,0 -2.63689,-0.45 -3.09539,-1 z m 26.78572,0 c 0,-0.76046 0.83267,-1 3.4762,-1 3.2003,0 3.37303,0.0777 2.17634,0.9788 -1.76357,1.32796 -5.65254,1.34255 -5.65254,0.0212 z m -34.65433,-2.5 c 0.41657,-1.24557 2.28537,-1.38151 2.74101,-0.19939 0.29536,0.76626 -0.0429,1.03272 -1.31083,1.03272 -1.06933,0 -1.60458,-0.31188 -1.43018,-0.83333 z m 45.13906,-0.19939 c 0.45565,-1.18212 2.32445,-1.04618 2.74103,0.19939 0.17439,0.52145 -0.36087,0.83333 -1.43019,0.83333 -1.26797,0 -1.60619,-0.26646 -1.31084,-1.03272 z m -32.58295,-1.67329 c 0,-0.3883 0.30134,-0.5206 0.66964,-0.29399 0.36831,0.22662 0.66965,0.54432 0.66965,0.70601 0,0.1617 -0.30134,0.29399 -0.66965,0.29399 -0.3683,0 -0.66964,-0.3177 -0.66964,-0.70601 z m 8.70536,-1.29399 c 0.55245,-0.35543 1.75781,-0.64625 2.67857,-0.64625 0.92076,0 2.12612,0.29082 2.67857,0.64625 0.71513,0.4601 -0.0564,0.64625 -2.67857,0.64625 -2.62215,0 -3.3937,-0.18615 -2.67857,-0.64625 z"
           style="fill:#000000" />
      </g>
      <path
         inkscape:connector-curvature="0"
         id="path3739"
         d="m 352.72971,348.69295 c -3.84833,-4.00397 -6.31313,-7.55136 -8.98121,-12.92593 l -3.67728,-7.40749 2.6209,-5.03588 c 1.93226,-3.71271 2.70419,-6.34392 2.93789,-10.01416 0.28467,-4.47049 0.0195,-5.58825 -2.59906,-10.95842 l -2.91605,-5.98016 2.71111,-5.70883 c 2.7028,-5.69129 11.23349,-16.39569 15.06918,-18.90892 l 1.9732,-1.29289 3.6182,6.07984 c 1.99002,3.3439 3.61821,6.58488 3.61821,7.20217 0,0.61729 -1.40067,2.6419 -3.11261,4.49912 -3.75217,4.07062 -6.76348,9.80939 -8.35644,15.92518 -2.89146,11.10101 -0.15164,22.28576 8.04739,32.85188 2.43699,3.14056 3.3804,5.01042 3.0512,6.04762 -0.86263,2.71791 -6.68883,11.14532 -7.70519,11.14532 -0.54752,0 -3.38227,-2.4833 -6.29944,-5.51845 z"
         style="fill:#00ff00" />
      <path
         inkscape:connector-curvature="0"
         id="path3741"
         d="m 428.65856,307.04372 c -0.71762,-0.19101 -2.03351,-2.37703 -2.95933,-4.9162 -3.74903,-10.28203 -10.41642,-17.83059 -19.84669,-22.46965 -5.09522,-2.5065 -5.19916,-2.52157 -17.39133,-2.52157 l -12.26548,0 -3.35969,-5.92169 c -1.84783,-3.25692 -3.35969,-6.15272 -3.35969,-6.43513 0,-0.2824 2.93478,-1.33561 6.52175,-2.34047 5.10557,-1.43029 8.40999,-1.81452 15.21742,-1.76944 9.8485,0.0652 12.65226,0.86549 14.0146,4.00026 1.67682,3.85841 4.71871,7.35301 8.15165,9.36485 2.64722,1.55137 4.69608,2.01879 9.85847,2.24906 l 6.51675,0.29067 3.5512,5.02403 c 4.55424,6.44304 7.71042,13.2949 8.99998,19.53831 0.87848,4.25315 0.85965,5.05035 -0.13413,5.67891 -1.14479,0.72408 -11.02559,0.89081 -13.51548,0.22806 l 0,0 z"
         style="fill:#00ff00" />
      <path
         inkscape:connector-curvature="0"
         id="path3743"
         d="m 375.80047,362.68143 c -6.09221,-2.07566 -6.15106,-2.39171 -1.92017,-10.3126 2.6095,-4.88537 3.07085,-5.35306 4.84209,-4.90851 1.07677,0.27026 6.60523,0.49929 12.28545,0.50897 10.06392,0.0172 10.46089,-0.0479 15.54438,-2.5458 9.20214,-4.52179 16.46795,-13.34846 19.56068,-23.7628 l 1.13232,-3.81293 7.82787,0 c 4.43355,0 8.04251,0.34729 8.32287,0.8009 0.57945,0.93758 -1.35172,8.17362 -3.68928,13.8236 -0.89941,2.17392 -3.41321,6.66166 -5.58622,9.97276 l -3.95092,6.02019 -6.4335,0.52591 c -8.10685,0.66271 -12.63863,2.79724 -16.11808,7.59182 -6.10629,8.41428 -5.04666,7.90869 -16.50902,7.87715 -8.37448,-0.023 -11.07734,-0.33708 -15.30847,-1.77866 z"
         style="fill:#00ff00" />
      <path
         inkscape:connector-curvature="0"
         id="path3745"
         d="m 321.54851,322.20053 c -8.74513,-5.24212 -7.19078,-17.5076 2.63465,-20.79032 5.21489,-1.74232 12.46241,2.39535 13.58062,7.75327 1.28092,6.13763 -1.39757,11.6227 -6.79966,13.9245 -3.61513,1.54038 -5.69195,1.34463 -9.41561,-0.88745 l 0,0 z"
         style="fill:#00ff00" />
      <path
         inkscape:connector-curvature="0"
         id="path3747"
         d="m 417.71089,267.37231 c -4.2128,-2.25935 -5.95161,-5.12091 -5.88381,-9.68298 0.0655,-4.40102 1.6781,-7.15168 5.86267,-9.99968 4.86834,-3.31336 10.75519,-1.50778 14.88119,4.56427 1.44826,2.13134 1.78653,3.4857 1.50746,6.03547 -0.90587,8.27646 -9.24373,12.90343 -16.36751,9.08292 z"
         style="fill:#00ff00" />
      <path
         inkscape:connector-curvature="0"
         id="path3749"
         d="m 417.21971,378.05226 c -8.00322,-5.03337 -7.65906,-16.04252 0.63645,-20.35866 4.46051,-2.32079 9.73257,-0.90948 13.55003,3.6273 4.02117,4.77888 3.34118,10.44604 -1.85019,15.41968 -3.06944,2.94071 -8.78055,3.54795 -12.33629,1.31168 z"
         style="fill:#00ff00" />
      <rect
         ry="13.438736"
         y="112.16666"
         x="377.39493"
         height="77.470352"
         width="26.877523"
         id="rect3753"
         style="fill:#00ff00" />
      <rect
         style="fill:#00ff00"
         id="rect3755"
         width="26.877523"
         height="77.470352"
         x="377.39493"
         y="434.69632"
         ry="13.438736" />
      <rect
         inkscape:transform-center-y="29.249014"
         inkscape:transform-center-x="7.9051319"
         transform="matrix(-0.00643684,0.99997928,-0.99997928,-0.00643681,0,0)"
         ry="13.438762"
         y="-592.83325"
         x="295.48361"
         height="77.470505"
         width="26.877472"
         id="rect3757"
         style="fill:#00ff00" />
      <rect
         style="fill:#00ff00"
         id="rect3759"
         width="26.877472"
         height="77.470505"
         x="297.56042"
         y="-270.30939"
         ry="13.438762"
         transform="matrix(-0.00643684,0.99997928,-0.99997928,-0.00643681,0,0)"
         inkscape:transform-center-x="7.9051547"
         inkscape:transform-center-y="29.248994" />
      <rect
         inkscape:transform-center-y="15.804309"
         inkscape:transform-center-x="25.849993"
         transform="matrix(-0.69219114,0.72171423,-0.72171555,-0.69218976,0,0)"
         ry="13.438748"
         y="-374.82449"
         x="-65.360046"
         height="77.470428"
         width="26.877495"
         id="rect3761"
         style="fill:#00ff00" />
      <rect
         style="fill:#00ff00"
         id="rect3763"
         width="26.877495"
         height="77.470428"
         x="-55.19178"
         y="-701.12665"
         ry="13.438748"
         transform="matrix(-0.69219114,0.72171423,-0.72171555,-0.69218976,0,0)"
         inkscape:transform-center-x="25.849991"
         inkscape:transform-center-y="15.804309" />
      <rect
         inkscape:transform-center-y="25.849921"
         inkscape:transform-center-x="-15.804296"
         transform="matrix(0.72171555,0.69218976,-0.69219114,0.72171423,0,0)"
         ry="13.438747"
         y="-251.64462"
         x="484.46133"
         height="77.470428"
         width="26.877499"
         id="rect3765"
         style="fill:#00ff00" />
      <rect
         style="fill:#00ff00"
         id="rect3767"
         width="26.877499"
         height="77.470428"
         x="486.97174"
         y="83.308731"
         ry="13.438747"
         transform="matrix(0.72171555,0.69218976,-0.69219114,0.72171423,0,0)"
         inkscape:transform-center-x="-15.804316"
         inkscape:transform-center-y="25.849931" />
    </g>
  </g>
</svg>
