<?xml version="1.0" encoding="UTF-8" standalone="no"?>
<!-- Created with Inkscape (http://www.inkscape.org/) -->

<svg
   xmlns:dc="http://purl.org/dc/elements/1.1/"
   xmlns:cc="http://creativecommons.org/ns#"
   xmlns:rdf="http://www.w3.org/1999/02/22-rdf-syntax-ns#"
   xmlns:svg="http://www.w3.org/2000/svg"
   xmlns="http://www.w3.org/2000/svg"
   xmlns:sodipodi="http://sodipodi.sourceforge.net/DTD/sodipodi-0.dtd"
   xmlns:inkscape="http://www.inkscape.org/namespaces/inkscape"
   width="16px"
   height="16px"
   id="svg2984"
   version="1.1"
   inkscape:version="0.48.3.1 r9886"
   sodipodi:docname="power16.svg">
  <defs
     id="defs2986" />
  <sodipodi:namedview
     id="base"
     pagecolor="#ffffff"
     bordercolor="#666666"
     borderopacity="1.0"
     inkscape:pageopacity="0.0"
     inkscape:pageshadow="2"
     inkscape:zoom="1.3007812"
     inkscape:cx="2.8567243"
     inkscape:cy="8.6489779"
     inkscape:current-layer="layer1"
     showgrid="true"
     inkscape:grid-bbox="true"
     inkscape:document-units="px"
     inkscape:window-width="848"
     inkscape:window-height="460"
     inkscape:window-x="1865"
     inkscape:window-y="120"
     inkscape:window-maximized="0" />
  <metadata
     id="metadata2989">
    <rdf:RDF>
      <cc:Work
         rdf:about="">
        <dc:format>image/svg+xml</dc:format>
        <dc:type
           rdf:resource="http://purl.org/dc/dcmitype/StillImage" />
        <dc:title></dc:title>
      </cc:Work>
    </rdf:RDF>
  </metadata>
  <g
     id="layer1"
     inkscape:label="Layer 1"
     inkscape:groupmode="layer">
    <rect
       style="fill:#000000;fill-opacity:1;stroke:none"
       id="rect3042"
       width="16"
       height="16"
       x="0"
       y="0"
       ry="8"
       inkscape:export-filename="/home/drew/Pictures/DavePowerman/power16.png"
       inkscape:export-xdpi="89.887642"
       inkscape:export-ydpi="89.887642" />
    <path
       style="fill:#00ff00;fill-opacity:1;stroke:none"
       d="M 8,1.3 C 7.5567999,1.3 7.2,1.6568 7.2,2.1 l 0,5.075 c 0,0.4432 0.3567999,0.8 0.8,0.8 0.4432001,0 0.7999999,-0.3568 0.7999999,-0.8 l 0,-5.075 C 8.7999999,1.6568 8.4432001,1.3 8,1.3 z m 2.275,1.925 c -0.36819,0 -0.6749999,0.3068 -0.6749999,0.675 0,0.2538 0.1412959,0.4874 0.3499999,0.6 1.21529,0.6852 2.05,1.9811 2.05,3.475 0,2.2091 -1.790861,4 -4,4 -2.2091393,0 -4.0000001,-1.7909 -4.0000001,-4 0,-1.4604 0.7812576,-2.7517 1.95,-3.45 0.1773346,-0.1198 0.3,-0.3199 0.3,-0.55 0,-0.3682 -0.3068102,-0.65 -0.675,-0.65 -0.1059816,0 -0.2110272,0.01 -0.3,0.05 -0.00337,0 0.00336,0.023 0,0.025 C 5.2380479,3.419 5.2075199,3.425 5.1749996,3.45 3.6736448,4.3934 2.675,6.071 2.675,7.975 2.675,10.9205 5.0544817,13.3 8,13.3 c 2.945518,0 5.325,-2.3795 5.325,-5.325 0,-1.9781 -1.074611,-3.7054 -2.675001,-4.625 -0.0081,-0.01 -0.01665,-0.02 -0.025,-0.025 -0.101305,-0.062 -0.222448,-0.1 -0.349999,-0.1 z"
       id="rect3010"
       inkscape:connector-curvature="0"
       inkscape:export-filename="/home/drew/Pictures/DavePowerman/power16.png"
       inkscape:export-xdpi="89.887642"
       inkscape:export-ydpi="89.887642" />
  </g>
</svg>
